<?xml version="1.0" encoding="UTF-8" standalone="no"?>
<!-- Generator: Adobe Illustrator 27.5.0, SVG Export Plug-In . SVG Version: 6.00 Build 0)  -->

<svg
   version="1.1"
   x="0px"
   y="0px"
   viewBox="0 0 750 500"
   style="enable-background:new 0 0 750 500;"
   xml:space="preserve"
   id="svg132"
   sodipodi:docname="baclground.svg"
   inkscape:version="1.4.3 (0d15f75, 2025-12-25)"
   xmlns:inkscape="http://www.inkscape.org/namespaces/inkscape"
   xmlns:sodipodi="http://sodipodi.sourceforge.net/DTD/sodipodi-0.dtd"
   xmlns:xlink="http://www.w3.org/1999/xlink"
   xmlns="http://www.w3.org/2000/svg"
   xmlns:svg="http://www.w3.org/2000/svg"><defs
   id="defs132" /><sodipodi:namedview
   id="namedview132"
   pagecolor="#ffffff"
   bordercolor="#000000"
   borderopacity="0.25"
   inkscape:showpageshadow="2"
   inkscape:pageopacity="0.0"
   inkscape:pagecheckerboard="0"
   inkscape:deskcolor="#d1d1d1"
   inkscape:zoom="1.0242669"
   inkscape:cx="307.53703"
   inkscape:cy="266.04394"
   inkscape:window-width="1800"
   inkscape:window-height="1012"
   inkscape:window-x="0"
   inkscape:window-y="44"
   inkscape:window-maximized="1"
   inkscape:current-layer="OBJECTS" />

<g
   id="OBJECTS">
	<g
   id="g112">
		<defs
   id="defs1">
			<rect
   id="SVGID_1_"
   width="750"
   height="500" />
		</defs>
		<clipPath
   id="SVGID_00000008860794351314978820000016330052674785512625_">
			<use
   xlink:href="#SVGID_1_"
   style="overflow:visible;"
   id="use1" />
		</clipPath>
		<g
   clip-path="url(#SVGID_00000008860794351314978820000016330052674785512625_)"
   id="g2"
   style="clip-path:url(#SVGID_00000008860794351314978820000016330052674785512625_);">
			
				
			
				
		</g>
		<g
   clip-path="url(#SVGID_00000008860794351314978820000016330052674785512625_)"
   id="g32"
   style="clip-path:url(#SVGID_00000008860794351314978820000016330052674785512625_);">
			
			
			
			
			
			
			
		</g>
		<g
   clip-path="url(#SVGID_00000008860794351314978820000016330052674785512625_)"
   id="g72"
   transform="translate(-219.66931,-58.578482)">
			<g
   id="g71">
				<g
   id="g34">
					<circle
   style="fill:#EBDCBE"
   cx="684.89099"
   cy="225.181"
   r="1.4349999"
   id="circle32" />
					<path
   style="fill:#EBDCBE"
   d="m 684.891,209.522 c 0.793,0 1.435,0.643 1.435,1.435 0,0.793 -0.643,1.435 -1.435,1.435 -0.793,0 -1.435,-0.643 -1.435,-1.435 0,-0.793 0.642,-1.435 1.435,-1.435 z"
   id="path32" />
					<path
   style="fill:#EBDCBE"
   d="m 684.891,195.298 c 0.793,0 1.435,0.643 1.435,1.435 0,0.793 -0.643,1.435 -1.435,1.435 -0.793,0 -1.435,-0.643 -1.435,-1.435 0,-0.793 0.642,-1.435 1.435,-1.435 z"
   id="path33" />
					<path
   style="fill:#EBDCBE"
   d="m 684.891,181.073 c 0.793,0 1.435,0.643 1.435,1.435 0,0.793 -0.643,1.435 -1.435,1.435 -0.793,0 -1.435,-0.643 -1.435,-1.435 0,-0.792 0.642,-1.435 1.435,-1.435 z"
   id="path34" />
				</g>
				<g
   id="g37">
					<circle
   style="fill:#EBDCBE"
   cx="696.99402"
   cy="225.181"
   r="1.4349999"
   id="circle34" />
					<path
   style="fill:#EBDCBE"
   d="m 696.994,209.522 c 0.793,0 1.435,0.643 1.435,1.435 0,0.793 -0.643,1.435 -1.435,1.435 -0.792,0 -1.435,-0.643 -1.435,-1.435 0,-0.793 0.642,-1.435 1.435,-1.435 z"
   id="path35" />
					<path
   style="fill:#EBDCBE"
   d="m 696.994,195.298 c 0.793,0 1.435,0.643 1.435,1.435 0,0.793 -0.643,1.435 -1.435,1.435 -0.793,0 -1.435,-0.643 -1.435,-1.435 0,-0.793 0.642,-1.435 1.435,-1.435 z"
   id="path36" />
					<path
   style="fill:#EBDCBE"
   d="m 696.994,181.073 c 0.793,0 1.435,0.643 1.435,1.435 0,0.793 -0.643,1.435 -1.435,1.435 -0.793,0 -1.435,-0.643 -1.435,-1.435 0,-0.792 0.642,-1.435 1.435,-1.435 z"
   id="path37" />
				</g>
				<g
   id="g39">
					<circle
   style="fill:#EBDCBE"
   cx="709.09698"
   cy="225.181"
   r="1.4349999"
   id="circle37" />
					<path
   style="fill:#EBDCBE"
   d="m 709.097,209.522 c 0.793,0 1.435,0.643 1.435,1.435 0,0.793 -0.643,1.435 -1.435,1.435 -0.792,0 -1.435,-0.643 -1.435,-1.435 0,-0.793 0.643,-1.435 1.435,-1.435 z"
   id="path38" />
					<circle
   style="fill:#EBDCBE"
   cx="709.09698"
   cy="196.733"
   r="1.4349999"
   id="circle38" />
					<path
   style="fill:#EBDCBE"
   d="m 709.097,181.073 c 0.793,0 1.435,0.643 1.435,1.435 0,0.793 -0.643,1.435 -1.435,1.435 -0.793,0 -1.435,-0.643 -1.435,-1.435 0,-0.792 0.643,-1.435 1.435,-1.435 z"
   id="path39" />
				</g>
				<g
   id="g43">
					<path
   style="fill:#EBDCBE"
   d="m 721.201,223.746 c 0.793,0 1.435,0.643 1.435,1.435 0,0.793 -0.643,1.435 -1.435,1.435 -0.793,0 -1.435,-0.643 -1.435,-1.435 -10e-4,-0.793 0.642,-1.435 1.435,-1.435 z"
   id="path40" />
					<path
   style="fill:#EBDCBE"
   d="m 721.201,209.522 c 0.793,0 1.435,0.643 1.435,1.435 0,0.792 -0.643,1.435 -1.435,1.435 -0.793,0 -1.435,-0.643 -1.435,-1.435 -10e-4,-0.793 0.642,-1.435 1.435,-1.435 z"
   id="path41" />
					<path
   style="fill:#EBDCBE"
   d="m 721.2,195.298 c 0.793,0 1.435,0.643 1.435,1.435 0,0.793 -0.643,1.435 -1.435,1.435 -0.793,0 -1.435,-0.643 -1.435,-1.435 0,-0.793 0.643,-1.435 1.435,-1.435 z"
   id="path42" />
					<path
   style="fill:#EBDCBE"
   d="m 721.2,181.073 c 0.793,0 1.435,0.643 1.435,1.435 0,0.793 -0.643,1.435 -1.435,1.435 -0.792,0 -1.435,-0.643 -1.435,-1.435 0,-0.792 0.643,-1.435 1.435,-1.435 z"
   id="path43" />
				</g>
				<g
   id="g47">
					<path
   style="fill:#EBDCBE"
   d="m 733.304,223.746 c 0.793,0 1.435,0.643 1.435,1.435 0,0.792 -0.643,1.435 -1.435,1.435 -0.793,0 -1.435,-0.643 -1.435,-1.435 -10e-4,-0.793 0.642,-1.435 1.435,-1.435 z"
   id="path44" />
					<path
   style="fill:#EBDCBE"
   d="m 733.304,209.522 c 0.793,0 1.435,0.643 1.435,1.435 0,0.793 -0.643,1.435 -1.435,1.435 -0.793,0 -1.435,-0.643 -1.435,-1.435 0,-0.792 0.642,-1.435 1.435,-1.435 z"
   id="path45" />
					<path
   style="fill:#EBDCBE"
   d="m 733.303,195.297 c 0.793,0 1.435,0.643 1.435,1.435 0,0.793 -0.643,1.435 -1.435,1.435 -0.793,0 -1.435,-0.643 -1.435,-1.435 0,-0.792 0.643,-1.434 1.435,-1.435 z"
   id="path46" />
					<path
   style="fill:#EBDCBE"
   d="m 733.303,181.073 c 0.793,0 1.435,0.643 1.435,1.435 0,0.792 -0.643,1.435 -1.435,1.435 -0.793,0 -1.435,-0.643 -1.435,-1.435 0,-0.792 0.643,-1.435 1.435,-1.435 z"
   id="path47" />
				</g>
				<g
   id="g49">
					<circle
   style="fill:#EBDCBE"
   cx="745.40698"
   cy="225.181"
   r="1.4349999"
   id="circle47" />
					<path
   style="fill:#EBDCBE"
   d="m 745.407,209.522 c 0.793,0 1.435,0.643 1.435,1.435 0,0.793 -0.643,1.435 -1.435,1.435 -0.793,0 -1.435,-0.643 -1.435,-1.435 -10e-4,-0.793 0.642,-1.435 1.435,-1.435 z"
   id="path48" />
					
						<circle
   transform="matrix(0.1606,-0.987,0.987,0.1606,431.511,900.8665)"
   style="fill:#EBDCBE"
   cx="745.40698"
   cy="196.733"
   id="ellipse48"
   r="1.4349999" />
					<path
   style="fill:#EBDCBE"
   d="m 745.407,181.073 c 0.793,0 1.435,0.643 1.435,1.435 0,0.793 -0.643,1.435 -1.435,1.435 -0.793,0 -1.435,-0.643 -1.435,-1.435 -10e-4,-0.792 0.642,-1.435 1.435,-1.435 z"
   id="path49" />
				</g>
				<g
   id="g52">
					<path
   style="fill:#EBDCBE"
   d="m 757.51,223.746 c 0.793,0 1.435,0.643 1.435,1.435 0,0.792 -0.643,1.435 -1.435,1.435 -0.793,0 -1.435,-0.643 -1.435,-1.435 0,-0.792 0.642,-1.435 1.435,-1.435 z"
   id="path50" />
					<path
   style="fill:#EBDCBE"
   d="m 757.51,209.522 c 0.793,0 1.435,0.643 1.435,1.435 0,0.793 -0.643,1.435 -1.435,1.435 -0.793,0 -1.435,-0.643 -1.435,-1.435 0,-0.793 0.642,-1.435 1.435,-1.435 z"
   id="path51" />
					<circle
   style="fill:#EBDCBE"
   cx="757.51001"
   cy="196.733"
   r="1.4349999"
   id="circle51" />
					<path
   style="fill:#EBDCBE"
   d="m 757.51,181.073 c 0.793,0 1.435,0.643 1.435,1.435 0,0.793 -0.643,1.435 -1.435,1.435 -0.792,0 -1.435,-0.643 -1.435,-1.435 0,-0.792 0.642,-1.435 1.435,-1.435 z"
   id="path52" />
				</g>
				<g
   id="g56">
					<path
   style="fill:#EBDCBE"
   d="m 769.613,223.746 c 0.793,0 1.435,0.643 1.435,1.435 0,0.792 -0.643,1.435 -1.435,1.435 -0.793,0 -1.435,-0.643 -1.435,-1.435 0,-0.792 0.642,-1.435 1.435,-1.435 z"
   id="path53" />
					<path
   style="fill:#EBDCBE"
   d="m 769.613,209.522 c 0.793,0 1.435,0.643 1.435,1.435 0,0.793 -0.643,1.435 -1.435,1.435 -0.793,0 -1.435,-0.643 -1.435,-1.435 0,-0.793 0.642,-1.435 1.435,-1.435 z"
   id="path54" />
					<path
   style="fill:#EBDCBE"
   d="m 769.613,195.297 c 0.793,0 1.435,0.643 1.435,1.435 0,0.793 -0.643,1.435 -1.435,1.435 -0.793,0 -1.435,-0.643 -1.435,-1.435 0,-0.792 0.642,-1.435 1.435,-1.435 z"
   id="path55" />
					<path
   style="fill:#EBDCBE"
   d="m 769.613,181.073 c 0.793,0 1.435,0.643 1.435,1.435 0,0.793 -0.643,1.435 -1.435,1.435 -0.793,0 -1.435,-0.643 -1.435,-1.435 0,-0.792 0.642,-1.435 1.435,-1.435 z"
   id="path56" />
				</g>
				<g
   id="g59">
					<path
   style="fill:#EBDCBE"
   d="m 781.716,223.746 c 0.793,0 1.435,0.643 1.435,1.435 0,0.793 -0.643,1.435 -1.435,1.435 -0.793,0 -1.435,-0.643 -1.435,-1.435 0,-0.793 0.643,-1.435 1.435,-1.435 z"
   id="path57" />
					<circle
   style="fill:#EBDCBE"
   cx="781.716"
   cy="210.957"
   r="1.4349999"
   id="circle57" />
					<circle
   style="fill:#EBDCBE"
   cx="781.716"
   cy="196.733"
   r="1.4349999"
   id="circle58" />
					<circle
   style="fill:#EBDCBE"
   cx="781.716"
   cy="182.509"
   r="1.4349999"
   id="circle59" />
				</g>
				<g
   id="g62">
					<path
   style="fill:#EBDCBE"
   d="m 793.819,223.746 c 0.793,0 1.435,0.643 1.435,1.435 0,0.793 -0.643,1.435 -1.435,1.435 -0.793,0 -1.435,-0.643 -1.435,-1.435 0,-0.793 0.643,-1.435 1.435,-1.435 z"
   id="path59" />
					<circle
   style="fill:#EBDCBE"
   cx="793.81897"
   cy="210.957"
   r="1.4349999"
   id="circle60" />
					<circle
   style="fill:#EBDCBE"
   cx="793.81897"
   cy="196.733"
   r="1.4349999"
   id="circle61" />
					<circle
   style="fill:#EBDCBE"
   cx="793.81897"
   cy="182.509"
   r="1.4349999"
   id="circle62" />
				</g>
				<g
   id="g64">
					<path
   style="fill:#EBDCBE"
   d="m 805.923,223.746 c 0.793,0 1.435,0.643 1.435,1.435 0,0.793 -0.643,1.435 -1.435,1.435 -0.793,0 -1.435,-0.643 -1.435,-1.435 -0.001,-0.793 0.642,-1.435 1.435,-1.435 z"
   id="path62" />
					
						<circle
   transform="matrix(0.1606,-0.987,0.987,0.1606,468.2954,972.5486)"
   style="fill:#EBDCBE"
   cx="805.92297"
   cy="210.957"
   id="ellipse62"
   r="1.4349999" />
					<circle
   style="fill:#EBDCBE"
   cx="805.92297"
   cy="196.733"
   r="1.4349999"
   id="circle63" />
					<circle
   style="fill:#EBDCBE"
   cx="805.92297"
   cy="182.509"
   r="1.4349999"
   id="circle64" />
				</g>
				<g
   id="g67">
					<path
   style="fill:#EBDCBE"
   d="m 818.026,223.746 c 0.793,0 1.435,0.643 1.435,1.435 0,0.793 -0.643,1.435 -1.435,1.435 -0.793,0 -1.435,-0.643 -1.435,-1.435 -10e-4,-0.793 0.642,-1.435 1.435,-1.435 z"
   id="path64" />
					<path
   style="fill:#EBDCBE"
   d="m 818.026,209.522 c 0.793,0 1.435,0.642 1.435,1.435 0,0.793 -0.643,1.435 -1.435,1.435 -0.793,0 -1.435,-0.643 -1.435,-1.435 0,-0.793 0.642,-1.435 1.435,-1.435 z"
   id="path65" />
					<path
   style="fill:#EBDCBE"
   d="m 818.026,195.297 c 0.793,0 1.435,0.643 1.435,1.435 0,0.793 -0.643,1.435 -1.435,1.435 -0.793,0 -1.435,-0.643 -1.435,-1.435 -10e-4,-0.792 0.642,-1.435 1.435,-1.435 z"
   id="path66" />
					<path
   style="fill:#EBDCBE"
   d="m 818.026,181.073 c 0.793,0 1.435,0.643 1.435,1.435 0,0.793 -0.643,1.435 -1.435,1.435 -0.793,0 -1.435,-0.643 -1.435,-1.435 -10e-4,-0.792 0.642,-1.435 1.435,-1.435 z"
   id="path67" />
				</g>
				<g
   id="g70">
					<path
   style="fill:#EBDCBE"
   d="m 830.129,223.746 c 0.793,0 1.435,0.643 1.435,1.435 0,0.793 -0.643,1.435 -1.435,1.435 -0.793,0 -1.435,-0.643 -1.435,-1.435 0,-0.793 0.642,-1.435 1.435,-1.435 z"
   id="path68" />
					<path
   style="fill:#EBDCBE"
   d="m 830.129,209.521 c 0.793,0 1.435,0.643 1.435,1.435 0,0.793 -0.643,1.435 -1.435,1.435 -0.793,0 -1.435,-0.643 -1.435,-1.435 0,-0.792 0.642,-1.435 1.435,-1.435 z"
   id="path69" />
					<path
   style="fill:#EBDCBE"
   d="m 830.129,195.297 c 0.793,0 1.435,0.643 1.435,1.435 0,0.793 -0.643,1.435 -1.435,1.435 -0.793,0 -1.435,-0.643 -1.435,-1.435 0,-0.792 0.642,-1.435 1.435,-1.435 z"
   id="path70" />
					<circle
   style="fill:#EBDCBE"
   cx="830.12903"
   cy="182.508"
   r="1.4349999"
   id="circle70" />
				</g>
			</g>
		</g>
		<g
   clip-path="url(#SVGID_00000008860794351314978820000016330052674785512625_)"
   id="g111"
   transform="translate(48.815401,74.19941)">
			<g
   id="g110">
				<g
   id="g74">
					<circle
   style="fill:#EBDCBE"
   cx="-101.621"
   cy="345.54599"
   r="1.4349999"
   id="circle72" />
					<circle
   style="fill:#EBDCBE"
   cx="-101.621"
   cy="331.32199"
   r="1.4349999"
   id="circle73" />
					<path
   style="fill:#EBDCBE"
   d="m -101.621,315.663 c 0.793,0 1.435,0.643 1.435,1.435 0,0.792 -0.643,1.435 -1.435,1.435 -0.793,0 -1.435,-0.643 -1.435,-1.435 0,-0.792 0.642,-1.435 1.435,-1.435 z"
   id="path73" />
					<path
   style="fill:#EBDCBE"
   d="m -101.621,301.438 c 0.793,0 1.435,0.643 1.435,1.435 0,0.793 -0.643,1.435 -1.435,1.435 -0.793,0 -1.435,-0.643 -1.435,-1.435 -0.001,-0.792 0.642,-1.435 1.435,-1.435 z"
   id="path74" />
				</g>
				<g
   id="g76">
					<circle
   style="fill:#EBDCBE"
   cx="-89.517998"
   cy="345.54599"
   r="1.4349999"
   id="circle74" />
					<path
   style="fill:#EBDCBE"
   d="m -89.518,329.887 c 0.793,0 1.435,0.643 1.435,1.435 0,0.793 -0.643,1.435 -1.435,1.435 -0.793,0 -1.435,-0.643 -1.435,-1.435 0,-0.793 0.642,-1.435 1.435,-1.435 z"
   id="path75" />
					<circle
   style="fill:#EBDCBE"
   cx="-89.517998"
   cy="317.09799"
   r="1.4349999"
   id="circle75" />
					<circle
   style="fill:#EBDCBE"
   cx="-89.517998"
   cy="302.87399"
   r="1.4349999"
   id="circle76" />
				</g>
				<g
   id="g78">
					<circle
   style="fill:#EBDCBE"
   cx="-77.415001"
   cy="345.54599"
   r="1.4349999"
   id="circle77" />
					<path
   style="fill:#EBDCBE"
   d="m -77.415,329.887 c 0.793,0 1.435,0.643 1.435,1.435 0,0.793 -0.643,1.435 -1.435,1.435 -0.793,0 -1.435,-0.643 -1.435,-1.435 0,-0.793 0.643,-1.435 1.435,-1.435 z"
   id="path77" />
					<circle
   style="fill:#EBDCBE"
   cx="-77.415001"
   cy="317.09799"
   r="1.4349999"
   id="circle78" />
					<path
   style="fill:#EBDCBE"
   d="m -77.415,301.439 c 0.793,0 1.435,0.643 1.435,1.435 0,0.793 -0.643,1.435 -1.435,1.435 -0.792,0 -1.435,-0.643 -1.435,-1.435 0,-0.793 0.642,-1.435 1.435,-1.435 z"
   id="path78" />
				</g>
				<g
   id="g82">
					<path
   style="fill:#EBDCBE"
   d="m -65.312,344.111 c 0.793,0 1.435,0.643 1.435,1.435 0,0.792 -0.643,1.435 -1.435,1.435 -0.793,0 -1.435,-0.643 -1.435,-1.435 0,-0.792 0.643,-1.435 1.435,-1.435 z"
   id="path79" />
					<path
   style="fill:#EBDCBE"
   d="m -65.312,329.887 c 0.793,0 1.435,0.643 1.435,1.435 0,0.793 -0.643,1.435 -1.435,1.435 -0.793,0 -1.435,-0.643 -1.435,-1.435 0,-0.793 0.643,-1.435 1.435,-1.435 z"
   id="path80" />
					<path
   style="fill:#EBDCBE"
   d="m -65.312,315.663 c 0.793,0 1.435,0.643 1.435,1.435 0,0.792 -0.643,1.435 -1.435,1.435 -0.793,0 -1.435,-0.643 -1.435,-1.435 0,-0.792 0.643,-1.435 1.435,-1.435 z"
   id="path81" />
					<path
   style="fill:#EBDCBE"
   d="m -65.312,301.439 c 0.793,0 1.435,0.643 1.435,1.435 0,0.793 -0.643,1.435 -1.435,1.435 -0.792,0 -1.435,-0.643 -1.435,-1.435 0,-0.793 0.643,-1.435 1.435,-1.435 z"
   id="path82" />
				</g>
				<g
   id="g84">
					<circle
   style="fill:#EBDCBE"
   cx="-53.208"
   cy="345.54599"
   r="1.4349999"
   id="circle82" />
					<circle
   style="fill:#EBDCBE"
   cx="-53.208"
   cy="331.32199"
   r="1.4349999"
   id="circle83" />
					<circle
   style="fill:#EBDCBE"
   cx="-53.209"
   cy="317.09799"
   r="1.4349999"
   id="circle84" />
					<path
   style="fill:#EBDCBE"
   d="m -53.209,301.439 c 0.793,0 1.435,0.643 1.435,1.435 0,0.793 -0.643,1.435 -1.435,1.435 -0.793,0 -1.435,-0.643 -1.435,-1.435 0,-0.793 0.643,-1.435 1.435,-1.435 z"
   id="path84" />
				</g>
				<g
   id="g87">
					<circle
   style="fill:#EBDCBE"
   cx="-41.105"
   cy="345.54599"
   r="1.4349999"
   id="circle85" />
					<circle
   style="fill:#EBDCBE"
   cx="-41.105"
   cy="331.32199"
   r="1.4349999"
   id="circle86" />
					<circle
   style="fill:#EBDCBE"
   cx="-41.105"
   cy="317.09799"
   r="1.4349999"
   id="circle87" />
					<path
   style="fill:#EBDCBE"
   d="m -41.105,301.439 c 0.793,0 1.435,0.643 1.435,1.435 0,0.793 -0.643,1.435 -1.435,1.435 -0.792,0 -1.435,-0.643 -1.435,-1.435 -10e-4,-0.793 0.642,-1.435 1.435,-1.435 z"
   id="path87" />
				</g>
				<g
   id="g89">
					<circle
   style="fill:#EBDCBE"
   cx="-29.002001"
   cy="345.54599"
   r="1.4349999"
   id="circle88" />
					<path
   style="fill:#EBDCBE"
   d="m -29.002,329.887 c 0.793,0 1.435,0.642 1.435,1.435 0,0.793 -0.643,1.435 -1.435,1.435 -0.792,0 -1.435,-0.642 -1.435,-1.435 0,-0.793 0.642,-1.435 1.435,-1.435 z"
   id="path88" />
					<circle
   style="fill:#EBDCBE"
   cx="-29.002001"
   cy="317.09799"
   r="1.4349999"
   id="circle89" />
					<path
   style="fill:#EBDCBE"
   d="m -29.002,301.438 c 0.793,0 1.435,0.643 1.435,1.435 0,0.792 -0.643,1.435 -1.435,1.435 -0.793,0 -1.435,-0.643 -1.435,-1.435 -10e-4,-0.792 0.642,-1.435 1.435,-1.435 z"
   id="path89" />
				</g>
				<g
   id="g93">
					<path
   style="fill:#EBDCBE"
   d="m -16.899,344.111 c 0.793,0 1.435,0.643 1.435,1.435 0,0.793 -0.643,1.435 -1.435,1.435 -0.793,0 -1.435,-0.643 -1.435,-1.435 0,-0.793 0.642,-1.435 1.435,-1.435 z"
   id="path90" />
					<path
   style="fill:#EBDCBE"
   d="m -16.899,329.887 c 0.793,0 1.435,0.643 1.435,1.435 0,0.792 -0.643,1.435 -1.435,1.435 -0.793,0 -1.435,-0.643 -1.435,-1.435 0,-0.792 0.642,-1.435 1.435,-1.435 z"
   id="path91" />
					<path
   style="fill:#EBDCBE"
   d="m -16.899,315.663 c 0.793,0 1.435,0.643 1.435,1.435 0,0.792 -0.643,1.435 -1.435,1.435 -0.793,0 -1.435,-0.643 -1.435,-1.435 0,-0.792 0.642,-1.435 1.435,-1.435 z"
   id="path92" />
					<path
   style="fill:#EBDCBE"
   d="m -16.899,301.438 c 0.793,0 1.435,0.643 1.435,1.435 0,0.793 -0.643,1.435 -1.435,1.435 -0.793,0 -1.435,-0.643 -1.435,-1.435 0,-0.792 0.642,-1.435 1.435,-1.435 z"
   id="path93" />
				</g>
				<g
   id="g96">
					<path
   style="fill:#EBDCBE"
   d="m -4.796,344.111 c 0.793,0 1.435,0.643 1.435,1.435 0,0.793 -0.643,1.435 -1.435,1.435 -0.792,0 -1.435,-0.643 -1.435,-1.435 0,-0.792 0.642,-1.435 1.435,-1.435 z"
   id="path94" />
					<circle
   style="fill:#EBDCBE"
   cx="-4.796"
   cy="331.32199"
   r="1.4349999"
   id="circle94" />
					<circle
   style="fill:#EBDCBE"
   cx="-4.796"
   cy="317.09799"
   r="1.4349999"
   id="circle95" />
					<circle
   style="fill:#EBDCBE"
   cx="-4.796"
   cy="302.87399"
   r="1.4349999"
   id="circle96" />
				</g>
				<g
   id="g99">
					<path
   style="fill:#EBDCBE"
   d="m 7.307,344.111 c 0.793,0 1.435,0.643 1.435,1.435 0,0.793 -0.643,1.435 -1.435,1.435 -0.793,0 -1.435,-0.643 -1.435,-1.435 0,-0.792 0.643,-1.435 1.435,-1.435 z"
   id="path96" />
					<circle
   style="fill:#EBDCBE"
   cx="7.3070002"
   cy="331.32199"
   r="1.4349999"
   id="circle97" />
					<circle
   style="fill:#EBDCBE"
   cx="7.3070002"
   cy="317.09799"
   r="1.4349999"
   id="circle98" />
					<circle
   style="fill:#EBDCBE"
   cx="7.3070002"
   cy="302.87399"
   r="1.4349999"
   id="circle99" />
				</g>
				<g
   id="g102">
					<path
   style="fill:#EBDCBE"
   d="m 19.411,344.111 c 0.793,0 1.435,0.643 1.435,1.435 0,0.793 -0.643,1.435 -1.435,1.435 -0.792,0 -1.435,-0.643 -1.435,-1.435 -10e-4,-0.792 0.642,-1.435 1.435,-1.435 z"
   id="path99" />
					<circle
   style="fill:#EBDCBE"
   cx="19.410999"
   cy="331.32199"
   r="1.4349999"
   id="circle100" />
					<circle
   style="fill:#EBDCBE"
   cx="19.41"
   cy="317.09799"
   r="1.4349999"
   id="circle101" />
					<circle
   style="fill:#EBDCBE"
   cx="19.41"
   cy="302.87399"
   r="1.4349999"
   id="circle102" />
				</g>
				<g
   id="g105">
					<path
   style="fill:#EBDCBE"
   d="m 31.514,344.111 c 0.793,0 1.435,0.643 1.435,1.435 0,0.793 -0.643,1.435 -1.435,1.435 -0.792,0 -1.435,-0.643 -1.435,-1.435 -0.001,-0.792 0.642,-1.435 1.435,-1.435 z"
   id="path102" />
					<path
   style="fill:#EBDCBE"
   d="m 31.514,329.887 c 0.793,0 1.435,0.643 1.435,1.435 0,0.792 -0.643,1.435 -1.435,1.435 -0.793,0 -1.435,-0.643 -1.435,-1.435 0,-0.792 0.642,-1.435 1.435,-1.435 z"
   id="path103" />
					<path
   style="fill:#EBDCBE"
   d="m 31.514,315.663 c 0.793,0 1.435,0.643 1.435,1.435 0,0.792 -0.643,1.435 -1.435,1.435 -0.793,0 -1.435,-0.643 -1.435,-1.435 0,-0.792 0.642,-1.435 1.435,-1.435 z"
   id="path104" />
					<path
   style="fill:#EBDCBE"
   d="m 31.514,301.438 c 0.793,0 1.435,0.643 1.435,1.435 0,0.793 -0.643,1.435 -1.435,1.435 -0.793,0 -1.435,-0.643 -1.435,-1.435 -0.001,-0.792 0.642,-1.435 1.435,-1.435 z"
   id="path105" />
				</g>
				<g
   id="g109">
					<path
   style="fill:#EBDCBE"
   d="m 43.617,344.111 c 0.793,0 1.435,0.643 1.435,1.435 0,0.793 -0.643,1.435 -1.435,1.435 -0.793,0 -1.435,-0.643 -1.435,-1.435 0,-0.793 0.642,-1.435 1.435,-1.435 z"
   id="path106" />
					<path
   style="fill:#EBDCBE"
   d="m 43.617,329.887 c 0.793,0 1.435,0.643 1.435,1.435 0,0.793 -0.643,1.435 -1.435,1.435 -0.793,0 -1.435,-0.643 -1.435,-1.435 0,-0.793 0.642,-1.435 1.435,-1.435 z"
   id="path107" />
					<path
   style="fill:#EBDCBE"
   d="m 43.617,315.663 c 0.793,0 1.435,0.643 1.435,1.435 0,0.793 -0.643,1.435 -1.435,1.435 -0.793,0 -1.435,-0.643 -1.435,-1.435 -0.001,-0.793 0.642,-1.435 1.435,-1.435 z"
   id="path108" />
					<path
   style="fill:#EBDCBE"
   d="m 43.617,301.438 c 0.793,0 1.435,0.643 1.435,1.435 0,0.793 -0.643,1.435 -1.435,1.435 -0.793,0 -1.435,-0.643 -1.435,-1.435 -0.001,-0.792 0.642,-1.435 1.435,-1.435 z"
   id="path109" />
				</g>
			</g>
		</g>
	</g>
	<g
   id="g132"
   transform="translate(11.715696,7.8104643)">
		<g
   id="g116"
   transform="translate(-51.744326,222.59823)">
			<g
   id="g113">
				<path
   style="fill:#e8e5e3"
   d="m 337.572,34.099 v 0 c 0,10.871 -8.895,19.766 -19.766,19.766 h -60.377 c -10.871,0 -19.766,-8.895 -19.766,-19.766 v 0 c 0,-10.871 8.895,-19.766 19.766,-19.766 h 60.377 c 10.871,0 19.766,8.895 19.766,19.766 z"
   id="path112" />
				<path
   style="fill:none;stroke:#212c47;stroke-miterlimit:10"
   d="m 370.89,47.086 v 0 c 0,10.871 -8.895,19.766 -19.766,19.766 h -60.377 c -10.871,0 -19.766,-8.895 -19.766,-19.766 v 0 c 0,-10.871 8.895,-19.766 19.766,-19.766 h 60.377 c 10.871,-0.001 19.766,8.894 19.766,19.766 z"
   id="path113" />
			</g>
			
		</g>
		<g
   id="g131"
   transform="translate(-5.8578482,34.170781)">
			<g
   id="g123">
				<g
   id="g119"
   transform="translate(-33.194473,148.39882)">
					
						<circle
   transform="matrix(0.921,-0.3895,0.3895,0.921,-29.3881,262.8676)"
   style="fill:#cee4e4"
   cx="633.47198"
   cy="203.89799"
   id="ellipse116"
   r="28.988001" />
					<g
   id="g118">
						<g
   id="g117">
							<path
   style="fill:#EBDCBE"
   d="m 621.108,246.127 v 0 0 c -1.219,-0.212 -2.041,-1.373 -1.829,-2.599 v 0 c 0.212,-1.22 1.38,-2.041 2.599,-1.823 v 0 c 1.22,0.212 2.041,1.373 1.829,2.593 v 0 c -0.192,1.098 -1.142,1.861 -2.214,1.861 v 0 c -0.121,0 -0.256,-0.006 -0.385,-0.032 z m 7.863,-1.836 c -0.212,-1.219 0.604,-2.381 1.823,-2.599 v 0 c 1.226,-0.212 2.388,0.604 2.606,1.823 v 0 c 0.212,1.226 -0.604,2.388 -1.823,2.606 v 0 c -0.135,0.019 -0.263,0.032 -0.392,0.032 v 0 c -1.072,0 -2.022,-0.764 -2.214,-1.862 z m -17.714,-1.732 c -1.072,-0.623 -1.444,-1.996 -0.822,-3.068 v 0 c 0.622,-1.078 1.996,-1.444 3.068,-0.822 v 0 c 1.078,0.616 1.444,1.99 0.828,3.068 v 0 c -0.418,0.719 -1.175,1.123 -1.951,1.123 v 0 c -0.379,10e-4 -0.764,-0.096 -1.123,-0.301 z m 27.084,-0.847 c -0.617,-1.072 -0.257,-2.452 0.821,-3.068 v 0 c 1.072,-0.622 2.446,-0.256 3.068,0.815 v 0 c 0.622,1.072 0.257,2.445 -0.815,3.067 v 0 c 0,0 0,0 0,0.007 v 0 c -0.353,0.205 -0.744,0.301 -1.123,0.301 v 0 c -0.777,0.001 -1.534,-0.404 -1.951,-1.122 z m -35.107,-5.879 c -0.802,-0.95 -0.681,-2.362 0.27,-3.164 v 0 c 0.949,-0.796 2.368,-0.674 3.164,0.27 v 0 c 0.802,0.949 0.681,2.368 -0.269,3.17 v 0 c -0.418,0.354 -0.931,0.526 -1.444,0.526 v 0 c -0.643,0 -1.278,-0.27 -1.721,-0.802 z m 43.027,0.237 c -0.95,-0.796 -1.072,-2.214 -0.276,-3.164 v 0 c 0.802,-0.95 2.214,-1.079 3.164,-0.277 v 0 c 0.95,0.796 1.072,2.214 0.276,3.165 v 0 c -0.443,0.526 -1.078,0.802 -1.72,0.802 v 0 c -0.507,0.001 -1.02,-0.173 -1.444,-0.526 z m -48.283,-9.287 c -0.424,-1.168 0.174,-2.458 1.341,-2.882 v 0 c 1.162,-0.43 2.452,0.173 2.882,1.335 v 0 c 0.424,1.161 -0.18,2.458 -1.341,2.882 v 0 c -0.257,0.096 -0.513,0.135 -0.77,0.135 v 0 c -0.918,0 -1.778,-0.565 -2.112,-1.47 z m 53.809,1.284 c -1.168,-0.424 -1.765,-1.714 -1.341,-2.876 v 0 c 0.424,-1.168 1.714,-1.771 2.882,-1.341 v 0 c 1.161,0.424 1.765,1.714 1.341,2.875 v 0 c -0.333,0.912 -1.194,1.483 -2.112,1.483 v 0 c -0.256,0 -0.513,-0.045 -0.77,-0.141 z m -55.638,-11.592 c 0,-1.245 1.001,-2.253 2.24,-2.253 v 0 c 1.245,-0.006 2.253,1.001 2.253,2.24 v 0 c 0,1.238 -1.002,2.253 -2.24,2.253 v 0 c -1.246,0 -2.253,-1 -2.253,-2.24 z m 55.837,-0.063 c 0,-0.006 0,-0.013 0,-0.02 v 0 c 0,-0.032 0,-0.058 0,-0.083 v -0.006 c -0.006,-1.239 0.995,-2.246 2.24,-2.253 v 0 c 1.239,0 2.246,0.995 2.253,2.24 v 0 c 0,0.019 0,0.045 0,0.065 v 0 c 0,0.019 0,0.038 0,0.058 v 0 c 0,1.238 -1.008,2.246 -2.246,2.246 v 0 c -1.24,-0.001 -2.247,-1.009 -2.247,-2.247 z m -52.699,-7.381 c -1.168,-0.424 -1.771,-1.714 -1.348,-2.876 v 0 0 0 c 0.417,-1.168 1.707,-1.771 2.875,-1.348 v 0 c 1.168,0.417 1.771,1.707 1.348,2.875 v 0 c -0.334,0.911 -1.194,1.483 -2.112,1.483 v 0 c -0.256,0 -0.513,-0.045 -0.763,-0.134 z m 51.127,-1.496 c -0.43,-1.162 0.167,-2.452 1.329,-2.882 v 0 c 1.161,-0.43 2.451,0.167 2.881,1.329 v 0 c 0.43,1.168 -0.167,2.458 -1.328,2.888 v 0 c -0.257,0.09 -0.52,0.135 -0.777,0.135 v 0 c -0.918,0 -1.772,-0.558 -2.105,-1.47 z m -46.968,-7.297 c -0.956,-0.796 -1.085,-2.214 -0.289,-3.164 v 0 c 0.796,-0.95 2.214,-1.079 3.164,-0.283 v 0 c 0.956,0.796 1.078,2.214 0.289,3.164 v 0 c -0.449,0.533 -1.085,0.809 -1.727,0.809 v 0 c -0.507,0 -1.02,-0.173 -1.437,-0.526 z m 42.475,-0.398 c -0.802,-0.943 -0.68,-2.362 0.269,-3.164 v 0 c 0.943,-0.802 2.362,-0.681 3.164,0.263 v 0 c 0.796,0.95 0.681,2.362 -0.263,3.164 v 0 c -0.424,0.359 -0.944,0.533 -1.451,0.533 v 0 c -0.641,0 -1.276,-0.27 -1.719,-0.796 z m -35.575,-6.444 c -0.623,-1.072 -0.257,-2.452 0.815,-3.074 v 0 0 0 c 1.072,-0.622 2.446,-0.256 3.068,0.815 v 0 c 0.629,1.072 0.263,2.445 -0.809,3.068 v 0 c -0.353,0.212 -0.744,0.308 -1.13,0.308 v 0 c -0.77,0 -1.528,-0.398 -1.944,-1.117 z m 28.727,0.732 c -1.072,-0.617 -1.444,-1.99 -0.828,-3.062 v 0 c 0.616,-1.078 1.996,-1.45 3.068,-0.828 v 0 0 0 c 1.078,0.616 1.444,1.983 0.828,3.062 v 0 c -0.411,0.725 -1.168,1.129 -1.951,1.129 v 0 c -0.38,0.001 -0.764,-0.096 -1.117,-0.301 z m -19.896,-4.807 c -0.218,-1.22 0.591,-2.388 1.816,-2.606 v 0 0 0 c 1.219,-0.218 2.387,0.597 2.605,1.816 v 0 c 0.218,1.226 -0.597,2.388 -1.823,2.606 h 0.006 c -0.135,0.026 -0.27,0.038 -0.398,0.038 v 0 c -1.064,0 -2.014,-0.77 -2.206,-1.854 z m 11.52,1.79 c -1.226,-0.212 -2.041,-1.374 -1.836,-2.593 v 0 c 0.212,-1.226 1.373,-2.048 2.599,-1.836 v 0 c 0,0 0,0 -0.006,0 v 0 c 1.226,0.212 2.047,1.373 1.836,2.593 v 0 c -0.186,1.097 -1.136,1.868 -2.214,1.868 v 0 c -0.122,0 -0.251,-0.013 -0.379,-0.032 z"
   id="path116" />
						</g>
					</g>
				</g>
				<g
   id="g122"
   transform="translate(10.739389,-230.40869)">
					<circle
   style="fill:#cee4e4"
   cx="96.028"
   cy="327.134"
   r="28.988001"
   id="circle119" />
					<g
   id="g121">
						<g
   id="g120">
							<path
   style="fill:#EBDCBE"
   d="m 112.446,348.469 v 0 0 c -1.219,-0.212 -2.041,-1.373 -1.829,-2.599 v 0 c 0.212,-1.22 1.379,-2.041 2.599,-1.823 v 0 c 1.22,0.212 2.041,1.373 1.829,2.593 v 0 c -0.192,1.098 -1.142,1.861 -2.214,1.861 v 0 c -0.122,0 -0.256,-0.006 -0.385,-0.032 z m 7.862,-1.835 c -0.212,-1.219 0.604,-2.381 1.823,-2.599 v 0 c 1.226,-0.212 2.388,0.604 2.606,1.823 v 0 c 0.212,1.226 -0.604,2.388 -1.823,2.606 v 0 c -0.135,0.019 -0.263,0.032 -0.392,0.032 v 0 c -1.071,-10e-4 -2.021,-0.765 -2.214,-1.862 z m -17.713,-1.733 c -1.072,-0.623 -1.444,-1.996 -0.822,-3.068 v 0 c 0.622,-1.078 1.996,-1.444 3.068,-0.822 v 0 c 1.078,0.616 1.444,1.99 0.828,3.068 v 0 c -0.417,0.719 -1.175,1.123 -1.951,1.123 v 0 c -0.379,10e-4 -0.764,-0.096 -1.123,-0.301 z m 27.084,-0.847 c -0.617,-1.072 -0.257,-2.452 0.821,-3.068 v 0 c 1.072,-0.622 2.446,-0.256 3.068,0.815 v 0 c 0.622,1.072 0.257,2.445 -0.815,3.067 v 0 c 0,0 0,0 0,0.007 v 0 c -0.353,0.205 -0.744,0.302 -1.123,0.302 v 0 c -0.777,0 -1.534,-0.404 -1.951,-1.123 z m -35.107,-5.879 c -0.802,-0.95 -0.681,-2.362 0.27,-3.164 v 0 c 0.95,-0.796 2.368,-0.674 3.164,0.27 v 0 c 0.802,0.949 0.681,2.368 -0.27,3.17 v 0 c -0.417,0.354 -0.931,0.526 -1.444,0.526 v 0 c -0.642,0 -1.277,-0.269 -1.72,-0.802 z m 43.027,0.237 c -0.95,-0.796 -1.072,-2.214 -0.276,-3.164 v 0 c 0.802,-0.95 2.214,-1.079 3.164,-0.276 v 0 c 0.95,0.796 1.072,2.214 0.276,3.165 v 0 c -0.443,0.526 -1.078,0.802 -1.72,0.802 v 0 c -0.507,0 -1.02,-0.174 -1.444,-0.527 z m -48.284,-9.287 c -0.424,-1.168 0.174,-2.458 1.341,-2.882 v 0 c 1.162,-0.43 2.452,0.173 2.882,1.335 v 0 c 0.424,1.161 -0.18,2.458 -1.341,2.882 v 0 c -0.257,0.096 -0.513,0.135 -0.77,0.135 v 0 c -0.918,0 -1.778,-0.565 -2.112,-1.47 z m 53.809,1.284 c -1.168,-0.424 -1.765,-1.714 -1.341,-2.876 v 0 c 0.424,-1.168 1.714,-1.771 2.882,-1.341 v 0 c 1.161,0.424 1.765,1.714 1.341,2.875 v 0 c -0.333,0.912 -1.194,1.483 -2.112,1.483 v 0 c -0.255,0 -0.512,-0.045 -0.77,-0.141 z M 87.486,318.818 c 0,-1.245 1.001,-2.253 2.24,-2.253 v 0 c 1.245,-0.006 2.253,1.001 2.253,2.24 v 0 c 0,1.238 -1.002,2.253 -2.24,2.253 v 0 c -1.245,0 -2.253,-1.001 -2.253,-2.24 z m 55.838,-0.064 c 0,-0.006 0,-0.013 0,-0.019 v 0 c 0,-0.032 0,-0.058 0,-0.083 v -0.006 c -0.006,-1.239 0.995,-2.246 2.24,-2.253 v 0 c 1.239,0 2.246,0.995 2.253,2.24 v 0 c 0,0.019 0,0.045 0,0.065 v 0 c 0,0.019 0,0.038 0,0.058 v 0 c 0,1.238 -1.008,2.246 -2.246,2.246 v 0 c -1.24,-0.002 -2.247,-1.01 -2.247,-2.248 z m -52.699,-7.381 c -1.168,-0.424 -1.771,-1.714 -1.348,-2.876 v 0 0 0 c 0.417,-1.168 1.707,-1.771 2.875,-1.348 v 0 c 1.168,0.417 1.771,1.707 1.348,2.875 v 0 c -0.334,0.911 -1.194,1.483 -2.112,1.483 v 0 c -0.256,10e-4 -0.513,-0.044 -0.763,-0.134 z m 51.126,-1.495 c -0.43,-1.162 0.167,-2.452 1.329,-2.882 v 0 c 1.161,-0.43 2.451,0.167 2.881,1.329 v 0 c 0.43,1.168 -0.167,2.458 -1.328,2.888 v 0 c -0.257,0.09 -0.52,0.135 -0.777,0.135 v 0 c -0.918,-0.001 -1.771,-0.559 -2.105,-1.47 z M 94.784,302.58 c -0.956,-0.796 -1.085,-2.214 -0.289,-3.164 v 0 c 0.796,-0.95 2.214,-1.079 3.164,-0.283 v 0 c 0.957,0.796 1.078,2.214 0.289,3.164 v 0 c -0.449,0.533 -1.085,0.809 -1.727,0.809 v 0 c -0.507,0.001 -1.02,-0.173 -1.437,-0.526 z m 42.475,-0.398 c -0.802,-0.943 -0.68,-2.362 0.27,-3.164 v 0 c 0.943,-0.802 2.362,-0.681 3.164,0.263 v 0 c 0.796,0.95 0.681,2.362 -0.263,3.164 v 0 c -0.424,0.359 -0.944,0.533 -1.451,0.533 v 0 c -0.642,0 -1.277,-0.27 -1.72,-0.796 z m -35.576,-6.444 c -0.623,-1.072 -0.257,-2.452 0.815,-3.074 v 0 0 0 c 1.072,-0.622 2.446,-0.256 3.068,0.815 v 0 c 0.629,1.072 0.263,2.445 -0.809,3.068 v 0 c -0.354,0.212 -0.745,0.308 -1.13,0.308 v 0 c -0.769,0 -1.527,-0.398 -1.944,-1.117 z m 28.728,0.732 c -1.072,-0.617 -1.444,-1.99 -0.828,-3.062 v 0 c 0.616,-1.078 1.996,-1.45 3.068,-0.828 v 0 0 0 c 1.078,0.616 1.444,1.983 0.828,3.062 v 0 c -0.411,0.725 -1.168,1.13 -1.951,1.13 v 0 c -0.38,0 -0.764,-0.097 -1.117,-0.302 z m -19.897,-4.807 c -0.218,-1.22 0.59,-2.388 1.817,-2.606 v 0 0 0 c 1.219,-0.218 2.387,0.597 2.605,1.817 v 0 c 0.218,1.226 -0.597,2.388 -1.823,2.606 h 0.006 c -0.135,0.026 -0.27,0.038 -0.398,0.038 v 0 c -1.064,0 -2.014,-0.771 -2.207,-1.855 z m 11.521,1.791 c -1.226,-0.212 -2.041,-1.374 -1.836,-2.593 v 0 c 0.212,-1.226 1.373,-2.048 2.599,-1.836 v 0 c 0,0 0,0 -0.006,0 v 0 c 1.226,0.212 2.048,1.373 1.836,2.593 v 0 c -0.186,1.098 -1.136,1.868 -2.214,1.868 v 0 c -0.123,0 -0.251,-0.013 -0.379,-0.032 z"
   id="path119" />
						</g>
					</g>
				</g>
			</g>
			<g
   id="g126">
				
					<rect
   x="632.49799"
   y="37.780998"
   transform="rotate(-90,636.1803,41.4637)"
   style="fill:#EBDCBE"
   width="7.3649998"
   height="7.3649998"
   id="rect123" />
				
					<rect
   x="612.49799"
   y="37.780998"
   transform="rotate(-90,616.1803,41.4639)"
   style="fill:#EBDCBE"
   width="7.3649998"
   height="7.3649998"
   id="rect124" />
				
					<rect
   x="592.49799"
   y="37.782001"
   transform="rotate(-90,596.1803,41.4639)"
   style="fill:#EBDCBE"
   width="7.3649998"
   height="7.3649998"
   id="rect125" />
				
					<rect
   x="572.49799"
   y="37.782001"
   transform="rotate(-90,576.1803,41.4639)"
   style="fill:#EBDCBE"
   width="7.3649998"
   height="7.3649998"
   id="rect126" />
			</g>
			<g
   id="g130"
   transform="translate(160.11452,-41.004937)">
				
					<rect
   x="230.298"
   y="453.569"
   transform="rotate(-90,233.9804,457.2515)"
   style="fill:#EBDCBE"
   width="7.3649998"
   height="7.3649998"
   id="rect127" />
				
					<rect
   x="210.298"
   y="453.569"
   transform="rotate(-90,213.9804,457.2515)"
   style="fill:#EBDCBE"
   width="7.3649998"
   height="7.3649998"
   id="rect128" />
				
					<rect
   x="190.298"
   y="453.569"
   transform="rotate(-90,193.9804,457.2515)"
   style="fill:#EBDCBE"
   width="7.3649998"
   height="7.3649998"
   id="rect129" />
				
					<rect
   x="170.298"
   y="453.569"
   transform="rotate(-90,173.9804,457.2515)"
   style="fill:#EBDCBE"
   width="7.3649998"
   height="7.3649998"
   id="rect130" />
			</g>
		</g>
	</g>
</g>
</svg>
