<?xml version="1.0" encoding="UTF-8" standalone="no"?>
<svg
   viewBox="0 0 512 512"
   version="1.1"
   id="svg28"
   sodipodi:docname="sveltastic-ui.svg"
   inkscape:version="1.4.3 (0d15f75, 2025-12-25)"
   xmlns:inkscape="http://www.inkscape.org/namespaces/inkscape"
   xmlns:sodipodi="http://sodipodi.sourceforge.net/DTD/sodipodi-0.dtd"
   xmlns:xlink="http://www.w3.org/1999/xlink"
   xmlns="http://www.w3.org/2000/svg"
   xmlns:svg="http://www.w3.org/2000/svg">
  <sodipodi:namedview
     id="namedview28"
     pagecolor="#ffffff"
     bordercolor="#000000"
     borderopacity="0.25"
     inkscape:showpageshadow="2"
     inkscape:pageopacity="0.0"
     inkscape:pagecheckerboard="0"
     inkscape:deskcolor="#d1d1d1"
     inkscape:zoom="0.92123388"
     inkscape:cx="271.37517"
     inkscape:cy="375.04048"
     inkscape:window-width="1800"
     inkscape:window-height="1012"
     inkscape:window-x="0"
     inkscape:window-y="44"
     inkscape:window-maximized="1"
     inkscape:current-layer="svg28" />
  <defs
     id="defs12">
    <linearGradient
       id="a"
       x1="43.5%"
       x2="57%"
       y1="52.8%"
       y2="45%"
       gradientUnits="userSpaceOnUse">
      <stop
         offset="0%"
         style="stop-color:#fb9c10"
         id="stop1" />
      <stop
         offset="21%"
         style="stop-color:#f9d51d"
         id="stop2" />
      <stop
         offset="23%"
         style="stop-color:#fad922"
         id="stop3" />
      <stop
         offset="31%"
         style="stop-color:#fca21a"
         id="stop4" />
      <stop
         offset="100%"
         style="stop-color:#f9dd26"
         id="stop5" />
    </linearGradient>
    <linearGradient
       id="b"
       x1="14.3%"
       x2="88.3%"
       y1="69.5%"
       y2="69.5%"
       gradientUnits="userSpaceOnUse">
      <stop
         offset="0%"
         style="stop-color:#0364f6"
         id="stop6" />
      <stop
         offset="1%"
         style="stop-color:#0365fc"
         id="stop7" />
      <stop
         offset="99%"
         style="stop-color:#0991fa"
         id="stop8" />
      <stop
         offset="100%"
         style="stop-color:#0a8ff9"
         id="stop9" />
    </linearGradient>
    <radialGradient
       id="c"
       cx="83.6%"
       cy="41.4%"
       r="76.3%"
       gradientUnits="userSpaceOnUse">
      <stop
         offset="8%"
         style="stop-color:#0763f2"
         id="stop10" />
      <stop
         offset="89%"
         style="stop-color:#0466fb"
         id="stop11" />
      <stop
         offset="100%"
         style="stop-color:#0364f6"
         id="stop12" />
    </radialGradient>
    <linearGradient
       inkscape:collect="always"
       xlink:href="#a"
       id="linearGradient19"
       gradientUnits="userSpaceOnUse"
       x1="43.5%"
       y1="52.8%"
       x2="57%"
       y2="45%" />
    <linearGradient
       inkscape:collect="always"
       xlink:href="#a"
       id="linearGradient20"
       gradientUnits="userSpaceOnUse"
       x1="43.5%"
       y1="52.8%"
       x2="57%"
       y2="45%" />
    <linearGradient
       inkscape:collect="always"
       xlink:href="#a"
       id="linearGradient21"
       gradientUnits="userSpaceOnUse"
       x1="43.5%"
       y1="52.8%"
       x2="57%"
       y2="45%" />
    <linearGradient
       inkscape:collect="always"
       xlink:href="#a"
       id="linearGradient22"
       gradientUnits="userSpaceOnUse"
       x1="43.5%"
       y1="52.8%"
       x2="57%"
       y2="45%" />
    <linearGradient
       inkscape:collect="always"
       xlink:href="#a"
       id="linearGradient23"
       gradientUnits="userSpaceOnUse"
       x1="43.5%"
       y1="52.8%"
       x2="57%"
       y2="45%" />
    <linearGradient
       inkscape:collect="always"
       xlink:href="#a"
       id="linearGradient24"
       gradientUnits="userSpaceOnUse"
       x1="43.5%"
       y1="52.8%"
       x2="57%"
       y2="45%" />
    <linearGradient
       inkscape:collect="always"
       xlink:href="#a"
       id="linearGradient25"
       gradientUnits="userSpaceOnUse"
       x1="43.5%"
       y1="52.8%"
       x2="57%"
       y2="45%" />
    <linearGradient
       inkscape:collect="always"
       xlink:href="#a"
       id="linearGradient26"
       gradientUnits="userSpaceOnUse"
       x1="43.5%"
       y1="52.8%"
       x2="57%"
       y2="45%" />
    <linearGradient
       inkscape:collect="always"
       xlink:href="#a"
       id="linearGradient27"
       gradientUnits="userSpaceOnUse"
       x1="43.5%"
       y1="52.8%"
       x2="57%"
       y2="45%" />
    <linearGradient
       inkscape:collect="always"
       xlink:href="#a"
       id="linearGradient28"
       gradientUnits="userSpaceOnUse"
       x1="43.5%"
       y1="52.8%"
       x2="57%"
       y2="45%" />
    <linearGradient
       inkscape:collect="always"
       xlink:href="#a"
       id="linearGradient29"
       gradientUnits="userSpaceOnUse"
       x1="43.5%"
       y1="52.8%"
       x2="57%"
       y2="45%" />
    <linearGradient
       inkscape:collect="always"
       xlink:href="#a"
       id="linearGradient30"
       gradientUnits="userSpaceOnUse"
       x1="43.5%"
       y1="52.8%"
       x2="57%"
       y2="45%" />
    <linearGradient
       inkscape:collect="always"
       xlink:href="#b"
       id="linearGradient31"
       gradientUnits="userSpaceOnUse"
       x1="14.3%"
       y1="69.5%"
       x2="88.3%"
       y2="69.5%" />
    <linearGradient
       inkscape:collect="always"
       xlink:href="#b"
       id="linearGradient32"
       gradientUnits="userSpaceOnUse"
       x1="14.3%"
       y1="69.5%"
       x2="88.3%"
       y2="69.5%" />
    <linearGradient
       inkscape:collect="always"
       xlink:href="#b"
       id="linearGradient33"
       gradientUnits="userSpaceOnUse"
       x1="14.3%"
       y1="69.5%"
       x2="88.3%"
       y2="69.5%" />
    <linearGradient
       inkscape:collect="always"
       xlink:href="#b"
       id="linearGradient34"
       gradientUnits="userSpaceOnUse"
       x1="14.3%"
       y1="69.5%"
       x2="88.3%"
       y2="69.5%" />
    <linearGradient
       inkscape:collect="always"
       xlink:href="#b"
       id="linearGradient35"
       gradientUnits="userSpaceOnUse"
       x1="14.3%"
       y1="69.5%"
       x2="88.3%"
       y2="69.5%" />
    <linearGradient
       inkscape:collect="always"
       xlink:href="#b"
       id="linearGradient36"
       gradientUnits="userSpaceOnUse"
       x1="14.3%"
       y1="69.5%"
       x2="88.3%"
       y2="69.5%" />
    <linearGradient
       inkscape:collect="always"
       xlink:href="#b"
       id="linearGradient37"
       gradientUnits="userSpaceOnUse"
       x1="14.3%"
       y1="69.5%"
       x2="88.3%"
       y2="69.5%" />
  </defs>
  <g
     fill="url(#a)"
     id="g15"
     style="fill:url(#linearGradient22)"
     transform="matrix(1.1440683,0,0,1.1440683,-43.059035,-36.064544)">
    <path
       d="m 238,285.9 a 7,7 0 0 1 1,-3.1 l 1,-1.5 -1.4,-1.8 c -0.8,-1 -1.9,-2.8 -2.5,-4.1 q -1.3,-2.2 -2.1,-2.4 c -0.8,0 -0.7,-0.3 0.5,-2.6 l 1.6,-3.8 c 0.5,-2 1.7,-1.2 2.7,1.5 1.2,3.6 4.5,6.9 8.6,8.4 1.7,0.6 3.1,1.3 3.1,1.6 0,0.5 -2.7,1.9 -3.8,1.9 -0.4,0 -2.5,1.7 -4.6,3.8 l -3.9,3.7 q -0.2,-0.1 -0.2,-1.6"
       id="path13"
       style="fill:url(#linearGradient19)" />
    <path
       d="m 278.2,265.2 q -0.6,-0.4 -0.7,-1.4 c 0,-1.5 -1.1,-3.8 -1.8,-3.8 q -0.6,-0.1 -0.7,-1 -0.1,-0.9 -0.4,-1 -0.3,-0.1 -0.9,-1.5 -0.2,-1.4 -0.7,-1.5 -0.5,-0.1 -1,-1.5 -0.6,-1.4 -1,-1.5 -0.4,-0.1 -0.8,-1.8 -0.4,-1.7 -1,-2 -0.6,-0.3 -0.7,-2 -0.1,-1.7 -0.4,-1.7 -0.3,0 -1.1,-2 a 11,11 0 0 0 -2.1,-3.6 q -1.2,-1.5 -1.4,-2.2 0,-0.6 -0.5,-0.8 -0.5,-0.2 1,-2.6 c 2,-2.9 4.2,-8 5.8,-13.3 1.5,-5.2 2.4,-5.2 4,0.2 0.6,2.2 2.2,6.2 3.6,8.8 1.9,3.8 3.1,5.5 6.6,9 a 26,26 0 0 0 9,6.6 71,71 0 0 0 9.2,3.6 c 3.5,1.2 4.2,1.5 3.7,2.1 a 2,2 0 0 1 -1.3,0.7 c -2,0 -8.9,2.5 -11.3,4.1 -1.4,1 -3.1,1.9 -3.8,2 -0.8,0.2 -3.2,2.2 -5.5,4.4 -4,3.9 -4.5,4.2 -5.8,3.7"
       id="path14"
       style="fill:url(#linearGradient20)" />
    <path
       d="m 238.5,228.5 c 0,-1.5 -0.4,-2.6 -1.7,-4.5 a 11,11 0 0 1 -1.8,-3.2 q 0,-0.8 -0.4,-0.8 -0.5,-0.1 -0.9,-1.1 c -0.5,-1.7 -2.4,-4.4 -3,-4.4 -0.3,0 0.2,-1.3 1.1,-2.8 1,-1.6 2.1,-4.1 2.6,-5.5 q 1.5,-5.7 3.6,0.8 a 19,19 0 0 0 13.1,12.4 9,9 0 0 1 2.9,1.2 l -2.8,1.1 c -4.1,1.3 -6.8,3 -9.6,6.1 a 19,19 0 0 1 -2.8,2.7 q -0.2,-0.2 -0.3,-2"
       id="path15"
       style="fill:url(#linearGradient21)" />
  </g>
  <g
     fill="url(#a)"
     id="g18"
     style="fill:url(#linearGradient26)"
     transform="matrix(1.1440683,0,0,1.1440683,-43.059035,-36.064544)">
    <path
       d="m 236,284.9 a 9,9 0 0 1 -1.5,-2.7 c 0,-1.2 -3,-5.7 -3.8,-5.7 -1.2,0 -0.8,-0.7 1.7,-3.1 q 2.4,-2.4 3.2,-2.1 c 0.4,0.1 1.3,1.3 2,2.6 1.3,2.8 4.4,7.1 5,7.1 q 0.2,0.2 -1.4,2.3 a 10,10 0 0 0 -1.7,3 c 0,1.5 -2,0.7 -3.5,-1.4"
       id="path16"
       style="fill:url(#linearGradient23)" />
    <path
       d="m 273.7,272.8 q -0.9,-1.7 -1.3,-1.8 -0.4,0 -0.4,-1 c 0,-0.5 -0.8,-1.8 -1.7,-2.8 q -1.9,-1.7 -1.8,-3.2 0,-1.4 -0.5,-1.5 -0.4,0 -0.5,-0.7 0,-0.8 -0.4,-0.8 -0.5,-0.2 -1.2,-1.7 -0.6,-1.7 -1,-1.8 -0.4,0 -0.4,-0.7 0,-0.8 -0.4,-0.8 -0.6,-0.1 -1.3,-1.7 c -0.4,-0.9 -1.1,-2 -1.5,-2.3 q -0.8,-0.6 -0.8,-1.5 0,-0.9 -0.5,-1.3 -0.4,-0.3 -0.5,-1.2 0,-1 -0.5,-1 -0.5,0 -0.8,-1.2 -0.3,-1.2 -1.5,-2.3 l -1.1,-0.8 4.1,-4.3 c 4,-4 5,-4.6 5.4,-3 q 0.3,0.8 1.4,2 c 0.7,0.8 1.5,2.3 2,3.4 a 12,12 0 0 0 2,3.7 q 0.7,1.3 0,1.4 -0.6,0.3 0.4,0.9 c 0.6,0.4 1,1.3 1,1.9 q 0.1,1.2 0.8,2 0.7,0.8 1,1.8 0.4,1 0.8,1 c 0.4,0 1.2,2 1,2.7 q 0,0.4 0.7,0.2 0.7,-0.4 0.6,0.9 -0.1,1.1 0.4,1.2 c 0.6,0 1.8,2.3 1.8,3.4 q 0,0.5 0.7,0.6 0.7,0.1 -0.2,0.5 -0.9,0.4 0.4,0.7 1.8,0.6 0.6,1.6 c -0.3,0.1 -1.6,2.3 -2.8,4.7 a 19,19 0 0 1 -2.7,4.5 q -0.4,-0.2 -1.3,-1.7"
       id="path17"
       style="fill:url(#linearGradient24)" />
    <path
       d="m 236.5,233.4 a 6,6 0 0 0 -1,-2.6 l -1.6,-2.6 -0.9,-1.2 -1.4,-2.6 c -0.7,-1.3 -1.4,-2.4 -1.7,-2.4 q -0.3,0 -0.4,-1 0,-0.9 -0.4,-1 -0.4,-0.1 -0.7,-1 -0.4,-0.9 -1.1,-1 c -1.2,0 -0.9,-0.5 2.3,-3.4 l 2.8,-2.6 1,1.9 c 0.7,1 1.4,2.4 1.7,3.2 q 0.5,1.3 1,1.4 0.3,0.1 0.4,0.8 c 0,0.6 3.1,5.4 4,6.2 q 1,0.8 -1.3,5.7 -2.6,5.2 -2.7,2.2"
       id="path18"
       style="fill:url(#linearGradient25)" />
  </g>
  <g
     fill="url(#a)"
     id="g21"
     style="fill:url(#linearGradient30)"
     transform="matrix(1.1440683,0,0,1.1440683,-43.059035,-36.064544)">
    <path
       d="m 236.9,291.7 q -0.4,-0.4 -0.4,-1.2 c 0,-1.6 -2.9,-6.8 -4.5,-8.3 q -2.5,-2 -6.7,-3.4 -1.1,-0.4 -0.3,-1 0.6,-0.8 1,-0.8 l 2.8,-1.1 c 1.3,-0.6 2.6,-1 2.8,-1 q 0.4,0 0.4,-0.6 c 0,-0.3 0.9,0.8 2,2.5 1.1,1.7 2,3.4 2,3.8 0,1 3,5 3.5,4.6 0.4,-0.2 -1.7,6.1 -2.1,6.6 q -0.3,0.1 -0.6,-0.2"
       id="path19"
       style="fill:url(#linearGradient27)" />
    <path
       d="m 270.5,282 c -3,-10.6 -5.4,-15 -11,-20.6 a 27,27 0 0 0 -9,-6.5 66,66 0 0 0 -8.9,-3.5 c -5,-1.3 -4.8,-1.7 0.9,-3.4 3.7,-1.1 8.7,-3.3 12.9,-5.7 l 2.2,-1.2 1.2,1.3 q 1.1,1 1,1.6 -0.2,0.5 0.4,1.2 0.8,0.7 0.8,1.3 0.1,0.6 0.8,1.8 0.8,1 0.4,1.2 -0.3,0 0.6,1.2 l 1.7,2.5 q 0.7,1.2 1.1,1.3 0.4,0.1 0.4,0.8 0,0.7 0.4,0.7 0.4,0 1,1.8 0.7,1.5 1.2,1.4 0.3,-0.1 0.4,0.8 0.1,0.9 0.5,1 0.5,0.1 0.5,1.4 c 0,1.4 1.2,3.4 2,3.4 q 0.5,0 0.6,0.4 0.1,0.7 0.7,1.2 0.6,0.7 0.4,1.4 -0.3,0.6 0.6,0.7 0.9,0.1 0.6,0.3 c -0.5,0.5 0.6,2.3 1.1,2 q 0.4,-0.2 0.3,0.3 l -2,6.7 c -1,3.2 -2,6.1 -2.3,6.4 -0.3,0.3 -0.9,-1.2 -1.5,-3.2"
       id="path20"
       style="fill:url(#linearGradient28)" />
    <path
       d="m 234.8,236.2 q -3.4,-11.2 -13,-14.1 c -1.6,-0.5 -2.9,-1.1 -2.9,-1.4 0,-0.3 0.9,-0.7 1.9,-1.1 2.5,-0.8 5.2,-2.1 6.2,-2.8 q 1.8,-1.3 2.8,0.6 0.4,1 0.8,1.1 0.4,0.1 0.4,1 0,0.9 0.4,1 0.6,0.2 1.7,2.4 c 0.6,1.3 1.3,2.5 1.6,2.5 q 0.3,0.2 0.3,0.9 0.1,0.6 0.8,1.3 c 1.6,1.3 2.6,4 2.1,5.9 l -1,3.7 q -0.4,1.6 -0.9,1.8 c -0.2,0 -0.8,-1.3 -1.2,-2.8"
       id="path21"
       style="fill:url(#linearGradient29)" />
  </g>
  <g
     fill="url(#b)"
     id="g23"
     style="fill:url(#linearGradient33)"
     transform="matrix(1.1440683,0,0,1.1440683,-43.059035,-36.064544)">
    <path
       d="m 291.2,444.7 c -1,-0.4 -0.9,-4.6 0,-5.5 0.6,-0.5 2.2,-0.7 6.3,-0.7 h 5.6 l -0.2,1.6 c -0.1,1.3 -0.4,1.7 -2.1,2.3 l -3,1 c -1.3,0.6 -5,1.6 -5.6,1.6 z"
       id="path22"
       style="fill:url(#linearGradient31)" />
    <path
       d="m 312.2,438.2 q -0.6,-0.5 -0.7,-1.8 0.1,-1.4 -1,-1.4 c -0.8,0 -1,-0.3 -1,-2.2 0,-1.2 -0.2,-2.4 -0.5,-2.5 q -0.4,-0.5 -0.5,-2 0,-1.7 -0.5,-2 -0.5,-0.3 -0.5,1.1 0,1.6 -0.7,1.6 -0.8,0.1 -0.8,1 c 0,0.9 -0.3,1 -2.2,1 -1.9,0 -2.2,-0.1 -2.7,-1.3 l -0.7,-2.7 q -0.3,-1.2 -0.3,0.7 c -0.1,2.5 -1,3.3 -3.8,3.3 -1.2,0 -2.3,0.3 -2.3,0.5 q 0,0.5 -1.5,0.5 -1.4,0.1 -1.5,0.5 -0.1,0.4 -1.7,0.5 c -1.4,0 -1.7,-0.2 -2,-1.5 q -0.3,-1.4 -1,-1.5 -0.6,0 -1.2,-3.8 c -0.7,-4.8 -0.7,-6.7 -0.1,-6.7 q 0.5,0 0.5,-0.7 0,-0.9 -1.8,-0.8 c -2.2,0 -3,-0.7 -3.3,-3.3 -0.3,-1 -0.6,-3.4 -0.9,-5.2 -0.3,-1.8 -0.7,-5 -0.8,-7.2 -0.1,-2.2 -0.5,-4.5 -0.7,-5 -0.5,-1.1 -0.9,-10.3 -1.3,-31 -0.2,-7.1 -0.5,-13.3 -0.8,-13.8 -0.6,-1.3 -0.5,-3.9 0.2,-4.2 q 0.8,0 0,-1 -0.7,-0.8 -0.4,-2.7 c 0.4,-2.3 0.4,-3.9 0.1,-13.5 q -0.3,-7.6 0.2,-7.6 0.5,0 0.5,-1.2 0,-1.2 0.4,-1.3 l 8,1.5 c 15,2.9 20.7,3.6 33.5,3.9 12.4,0.3 18.3,-0.2 20.1,-1.7 0.4,-0.3 2.2,-0.9 4,-1.2 13.5,-2.4 27.8,-7.6 38,-14 A 83,83 0 0 0 410.7,277 c 3.4,-7.6 6,-17.3 5.9,-23.2 0,-3.2 -1.4,-9.6 -2.6,-12.6 -1.2,-2.7 -1.4,-5.7 -0.3,-5.7 1.1,0 11,10.6 16,16.8 a 103,103 0 0 1 24.4,73.4 100,100 0 0 1 -55,81.8 c -2.7,0.7 -7.4,2.8 -7.9,3.5 a 268.3,268.3 0 0 0 -23,8.3 l -8.5,3 c -0.8,0.3 -3.9,1.5 -7,2.5 a 42,42 0 0 0 -6.3,2.6 c -0.5,0.4 -2.3,1 -4.1,1.4 -1.8,0.4 -4,1 -4.9,1.4 -0.9,0.4 -2.2,0.9 -2.9,1 l -2.8,1 c -0.8,0.4 -2.5,1 -3.7,1.3 -1.2,0.3 -3.6,1.3 -5.3,2 -1.6,0.8 -4.2,1.7 -5.7,1.9 l -3.5,0.8 a 2,2 0 0 1 -1.4,0"
       id="path23"
       style="fill:url(#linearGradient32)" />
  </g>
  <g
     fill="url(#b)"
     id="g25"
     style="fill:url(#linearGradient36)"
     transform="matrix(1.1440683,0,0,1.1440683,-43.059035,-36.064544)">
    <path
       d="m 214.5,467 c 0,-0.8 -0.3,-1.9 -0.7,-2.3 -0.9,-0.9 -1.1,-4.2 -0.3,-4.2 q 0.5,0 -0.2,-0.8 -0.7,-0.7 -0.8,-1.2 0,-0.5 -1,-0.5 -1,0 -1,-0.5 0,-0.4 -0.9,-0.5 c -2,0 -3.2,-6.2 -3.3,-17.3 a 51,51 0 0 0 -0.8,-10.6 q 0,-1.6 -0.7,-2 -1,-0.1 -0.8,-2.8 c 0,-3.2 -0.5,-7.3 -1,-7.3 -0.7,0 -1.5,-3.3 -1.7,-7.6 -0.2,-5.3 -0.5,-6.4 -1.8,-6.4 -1.1,0 -1.4,-0.8 -1.8,-5 -0.3,-3.3 -0.3,-3.5 0.7,-3.5 1.2,0 1.7,-2 1,-5 l -0.7,-4.2 a 6,6 0 0 0 -1,-2.7 c -1,-1 -1,-4.1 0,-4.1 q 0.8,0 0.8,-2 0.1,-1.8 0.5,-2 0.4,-0.2 0.5,-1.8 c 0,-1.7 0,-1.7 -2,-1.7 q -1.8,0 -2,-0.5 0,-0.5 -0.7,-0.5 c -0.7,0 -0.8,-1.2 -0.8,-7.8 v -7.7 h 3.4 l 0.2,-2.8 c 0.2,-3.6 0.2,-3.7 -1.9,-3.7 H 194 l 0.1,-20.3 c 0.2,-14.8 0.4,-20.4 0.8,-20.8 0.8,-0.8 0.8,-1.9 0.1,-1.9 -1,0 -3,-2.7 -3,-4.1 q 0,-1.7 0.9,-1.2 l 5.9,1.7 a 903.7,903.7 0 0 0 79.9,19.8 c 2.5,0.4 3.1,1.3 0.8,1.3 q -1.4,0 -1.5,0.5 0.1,0.5 0.5,0.2 c 1,-0.6 0.5,0.6 -0.5,1.3 q -0.9,0.7 -0.5,1.2 c 0.5,0.7 0.4,2.3 -0.2,2.3 q -0.4,0 0,0.6 c 0.7,1 0.8,6.4 0.1,6.4 q -0.4,0 0,0.6 c 0.4,0.5 0.8,5.3 0.6,7.4 v 1.6 q 0,1 -0.7,0.5 -0.6,-0.3 0.1,0.5 c 0.9,1.1 1,4.7 0.2,4.5 q -0.7,-0.2 0,1.2 0.7,1.5 0.5,4.3 -0.2,3 0.5,2.9 0.6,0 -0.1,0.5 c -0.7,0.4 -0.7,0.6 0,1.6 q 0.6,1.1 0,1.3 -0.6,0.2 -0.5,0.9 0.1,0.7 0.4,0.5 0.3,-0.2 1.1,0.2 0.9,0.6 -0.5,0.5 -1.4,-0.1 -0.6,0.4 0.9,0.5 0,0.7 -0.6,0.3 0.5,0.3 1.5,0 0.4,0.8 -0.6,0.9 -0.5,1.6 0.5,0.9 -0.4,0.4 -0.9,-0.5 0,0.4 0.6,0.8 0.4,1.3 -0.2,0.5 0.3,1.2 0.9,0.6 0,1.4 -0.8,0.6 -0.3,0.8 0.5,0.2 0.3,1.7 -0.2,1.4 -0.6,1.2 -0.4,0 -0.4,0.5 0,0.7 0.4,0.8 0.3,0.1 0.4,1.4 c 0,3.8 0.1,4.6 0.6,4.3 q 0.4,-0.1 0.5,0.2 0,0.5 -0.5,0.6 -0.5,0.1 -0.5,0.7 0,0.6 0.5,0.8 0.5,0.2 0.1,0.6 c -0.6,0.8 -0.5,6.9 0.1,7.8 q 0.4,0.7 0,1 -0.7,0.1 0,1.3 0.5,1.3 0.5,3.1 a 6,6 0 0 0 0.3,2.7 q 0.5,1 -0.2,1.1 -0.7,0.1 0.2,0.8 0.6,0.5 0.4,0.9 -0.2,0.3 0.4,1.1 0.8,0.7 0.2,1 c -0.7,0.2 -0.7,1.6 0,1.6 q 0.6,0 0,0.7 -0.8,0.7 0,1.9 c 0.4,0.6 0.6,1.8 0.6,2.5 -0.2,1.8 0.9,3 1.8,2 q 0.8,-0.7 -0.2,-0.6 c -0.7,0 -0.7,0 0,-0.8 0.7,-0.8 0.7,-0.9 -0.3,-1.8 q -0.9,-0.8 -0.6,-0.9 0.5,-0.1 0.6,-1.8 0,-1.5 -0.5,-1.7 -1.3,0 1.2,-2.7 1.7,-1.8 2.2,-1 c 0.6,0.6 -0.4,1.7 -1.7,1.7 q -1.1,0 -0.1,0.5 0.7,0.5 0.1,0.5 -0.6,0 -0.6,0.9 0,0.9 0.3,0.2 0.3,-0.5 1.1,-0.6 0.6,0 0.4,-0.3 c -0.4,-0.5 1,-1.7 2,-1.7 q 1,0 0.3,-0.5 -1,-0.4 0.1,-0.7 c 1,-0.4 1,1 0.1,2 q -0.8,0.7 -1,0 -0.2,-0.4 -0.3,0.6 -0.1,1 -1,1.1 c -1.1,0 -1.7,1.3 -0.7,1.7 1,0.4 0.9,1.2 -0.2,1.4 q -1,0 0,1 0.8,0.8 0.4,1.1 -0.3,0.4 -0.4,1.3 0.2,0.8 0.5,0.7 0.3,-0.1 0.4,0.6 0,0.8 0.3,0.3 0.3,-0.5 0.7,-0.6 0.5,0 0.2,0.5 -0.3,0.5 0.3,0.5 0.6,0 0.2,0.5 -0.2,0.5 0.3,0.5 0.5,0 0.2,0.5 -0.4,0.4 -0.7,0.3 -0.3,-0.1 -0.4,0.4 0.1,0.7 0.5,0.8 0.4,0 -0.6,1 c -1.1,1 -1.2,1.3 -0.3,2.3 q 0.5,0.6 0.9,0 0.3,-0.5 0.7,-0.2 0.2,0.5 -0.8,1.6 -1,1.1 -0.6,1.3 0.6,0 0.3,0.5 -0.1,0.5 0.3,0.5 0.6,0 0,0.7 -0.6,0.8 -0.3,1.1 0.3,0.3 0.3,-0.3 0,-0.6 0.7,0.1 0.7,0.7 0.4,1 0,0.4 0.3,0.4 0.4,0 0.3,1.2 -0.2,0.8 0.1,0.4 c 0.1,-0.3 1,-0.6 1.8,-0.7 q 2.3,0.1 0.4,-0.4 c -1.1,-0.3 -0.6,-0.7 0.7,-0.5 q 0.4,0 1.1,-0.9 0.7,-1.2 0.7,0 -0.1,1.2 0.7,0.2 0.6,-0.7 0.5,-1.5 -0.2,-0.8 0.1,-0.8 c 0.7,0 1.8,2 1.4,2.5 q -0.4,1 1,-0.1 c 1,-1 0.7,-2.7 -0.4,-2.8 l -1.3,-0.4 c -0.5,-0.5 1.5,-1.6 2.5,-1.4 q 1,0.3 1,-0.5 0,-0.6 0.6,-1.3 0.6,-0.7 1.4,1.2 0.6,1.6 1,1.5 0.3,-0.1 0.4,1 0,1.1 -0.5,1 -0.3,-0.2 0.2,1 c 0.5,1.1 2,1.9 1.8,1 q -0.2,-1.7 1,-1.8 0.8,0 0.2,-0.3 -0.6,-0.3 -1.3,0.3 -0.8,0.8 -0.7,-0.7 0,-1 0.4,-0.9 c 0.7,0.4 0.5,-0.4 -0.2,-1.4 q -0.6,-0.8 -1,-0.5 c -0.7,0.6 -0.3,-0.6 0.5,-1.5 q 0.8,-0.8 0.3,-1.7 c -0.6,-1.1 -0.3,-2.2 0.5,-2.2 q 0.5,0 0.2,0.3 -0.2,0.4 0.7,1.3 1,0.8 1,1.1 -0.1,0.5 0.5,1.4 c 0.7,1 2,1.2 2,0.3 q 0,-0.3 -0.5,-0.2 -0.3,0.2 -0.7,-0.4 -0.2,-0.6 0.7,-1 c 1.2,-0.2 1.7,1.5 0.6,2.5 q -1,0.8 0.2,0.7 1,0 1.6,0 1,-0.2 0.1,0.7 -0.7,0.9 0,1.6 0.7,0.7 0.2,1.1 -0.5,0.4 0.1,1.5 0.6,1.3 0.8,0.5 0.3,-0.4 0.3,0.7 0.1,1.3 -0.4,1.7 -0.5,0.4 -0.5,0.8 0,0.4 0.7,-0.2 c 0.7,-1 1.5,-1.2 1.1,-0.2 q 0,0.5 0.6,1.1 1,0.6 0.2,1.6 c -0.5,0.9 -0.4,1.1 0.8,1.5 l 1.3,0.5 -1.7,0.7 c -1,0.4 -2.3,1 -3,1.1 l -6.8,2 c -5.3,1.7 -5.4,1.7 -4,0.6 l 1.3,-1.5 c 0,-0.4 -5.2,0 -5.4,0.5 q -0.2,0.6 -1.2,0.4 -1.1,-0.3 -0.3,-0.7 0.6,-0.5 -0.5,-0.3 -1,0 -1,0.6 0.1,0.3 -0.4,0.4 -0.5,0 -0.6,0.9 -0.1,0.9 0.4,0.6 0.5,-0.3 0.5,0.3 0.1,0.4 1.3,0.5 c 1.9,0 1,0.8 -1.6,1.5 -1.3,0.3 -2.8,0.9 -3.4,1.3 q -1,0.6 -2.1,0.7 a 120,120 0 0 0 -17.2,5 835,835 0 0 0 -28.3,8.5 63,63 0 0 0 -8.9,3 c -0.7,0 -9.8,2.5 -17.4,4.8 q -1,0.5 -0.9,-1.3"
       id="path24"
       style="fill:url(#linearGradient34)" />
    <path
       d="m 416.5,253.8 c 0,-2.9 0.2,-3.8 0.7,-3.8 q 1.3,0.2 1.3,3.8 0,3.6 -1.3,3.7 c -0.5,0 -0.7,-0.9 -0.7,-3.7"
       id="path25"
       style="fill:url(#linearGradient35)" />
  </g>
  <g
     fill="#0368fc"
     id="g27"
     transform="matrix(1.1440683,0,0,1.1440683,-43.059035,-36.064544)">
    <path
       fill="url(#b)"
       d="m 158.8,475.7 a 96,96 0 0 1 -30.6,-8.9 91,91 0 0 1 -26.6,-18.5 93,93 0 0 1 -24.3,-95.7 87,87 0 0 1 47.8,-54 c 4.7,-2 14.5,-5.1 16.2,-5.1 q 1.3,0.2 0,-0.7 -1.2,-0.7 0,-1 c 0.6,-0.3 4.8,-0.6 9.5,-0.7 8.2,-0.2 8.6,-0.2 8.8,0.7 0.3,1 0.9,1 6,1.3 q 5.6,0.4 10.7,1.6 a 354,354 0 0 1 25,8 l -3,-0.7 c -1.2,-0.2 -2.8,-0.7 -3.5,-1 l -1.3,-0.3 c 0,0.5 2.6,2.8 3.2,2.8 q 0.7,0 0.5,1 -0.4,1.1 0.7,1 1,0 1.1,-0.4 0.1,-0.4 1,-0.4 1,-0.2 1,0.4 0.1,0.3 1.3,0.4 1.2,0 0.9,0.8 -0.4,0.6 -1.4,0.7 -1.2,0.1 -1.6,0.5 c -0.4,0.8 -1.7,0.6 -1.7,-0.3 q 0.2,-1.2 -1.2,0.3 -1.3,1.1 -1.3,1.7 0,0.3 0.9,-0.6 0.9,-1.2 1.5,-0.3 0.8,0.8 -0.1,0.7 -1,0 -1.7,0.8 -0.8,0.8 -0.2,1.7 1.3,1.9 -0.2,1.3 -0.8,-0.4 -0.5,0.5 l 0.3,1 1,0.2 q 1.3,-0.1 0.4,0.7 -0.6,0.7 -1,0.1 -0.3,-0.4 -0.4,0.8 0,1.3 0.6,1.4 0.4,0.1 -0.3,0.8 -0.8,0.8 -0.5,1.2 0.4,0.2 0.6,-0.4 0.2,-0.5 0.7,-0.6 0.5,-0.1 0.2,0.5 -0.2,0.4 0.3,0.6 0.5,0.3 -0.6,0.3 -1.4,0 -0.5,0.6 0.9,0.6 0.2,0.5 -0.6,0.1 -0.7,0.8 0.1,0.6 0.5,0.5 0.5,-0.2 0.5,0.1 0,0.6 -0.5,0.6 -0.5,0 -0.4,0.9 0,0.8 0.3,0.3 0.8,-1.6 0.9,0.5 -0.1,2.2 -1,0.7 -0.1,-0.5 -0.5,-0.3 -0.2,0.3 0.4,1 0.8,0.8 0.2,1 c -0.6,0.2 -1,3.4 -0.3,3.4 q 0.3,0 0.6,-0.6 0.1,-0.6 0.5,-0.4 0.3,0.4 -0.4,1.2 c -1,1 -1.4,3.2 -0.7,4.3 q 0.3,0.8 -0.1,1.3 c -0.6,0.6 -0.1,2.3 0.6,1.9 q 0.3,-0.2 0.4,0.2 0,0.5 -0.4,0.6 -0.4,0.1 -0.7,1.2 -0.1,1.2 0.2,1.3 0.3,0 0.4,-0.5 0,-0.5 0.9,-0.5 1,-0.1 -0.3,1 c -1.2,1 -2.2,4.1 -1,3.1 q 0.8,-0.6 1.4,-0.1 1,0.5 0,0.5 -0.8,0 -1.5,0.7 -0.6,0.8 0,0.8 0.6,0 0.5,-0.5 -0.1,-0.5 0.6,-0.5 0.3,0 0.2,0.5 -0.3,0.5 0.5,0.5 0.6,0 0.5,-0.5 -0.2,-0.5 0.8,-0.5 1.1,0 0.7,0.4 c -0.6,0.4 -1,1.8 -0.4,1.4 q 0.4,-0.1 1.1,0.2 1,0.6 -0.2,0.5 -1,0 -0.5,0.4 c 0.7,0.5 0.7,2.6 -0.1,2.6 q -1.4,0 0.3,1.9 c 1,1 1,1 0,1.7 q -0.8,0.7 -0.6,1 0.1,0.3 -0.7,0.4 -0.9,0 -1.6,0.6 -0.6,0.6 -0.6,0 0,-0.6 -0.4,-0.6 -0.3,0.2 -0.5,2.2 0,2.3 0.6,2.3 0.6,0 0,0.4 -0.6,0.4 -0.3,1.5 0.3,1.1 0.6,0.8 0.3,-0.3 1.2,0.5 c 0.9,1 2.6,1 3,0.2 q 0.2,-0.6 0.3,0.2 0.1,0.8 -0.5,0.9 -0.4,0 -0.5,1 0.2,1.3 -1,0.5 -1,-0.6 -0.9,0.1 c 0.2,0.9 1.1,1.8 1.6,1.5 q 0.3,0 0.3,0.6 0.1,0.8 0.5,0.5 c 0.5,-0.2 0.8,0.8 0.6,2 q -0.1,0.3 0.4,0.1 c 0.2,-0.2 1,0.1 1.6,0.7 l 1.2,1 -1.5,-0.2 q -2,-0.4 -0.5,0.5 1.4,0.8 -0.3,0.7 -1.3,0.1 -0.4,0.3 1.1,0.2 0.3,0.9 l -1.4,1 q -0.8,0.1 0.3,0.3 h 1.5 q 0.7,0 0.9,0.8 0.2,0.8 -0.3,0.5 -0.7,-0.1 -1.4,0.2 -0.9,0.5 0.2,0.5 0.8,0 0.6,0.5 -0.2,0.5 0.2,0.5 0.4,0 0.5,0.4 0,0.5 -1,0.2 -0.8,-0.2 -0.7,-0.7 0.1,-0.5 -0.5,-0.4 -0.6,0.1 -0.8,0.8 0,0.8 -0.7,0.5 -0.7,-0.3 -0.4,0.5 0.3,0.8 1.6,0.7 1.3,-0.1 0.4,0.3 -1.1,0.2 -0.3,1 0.8,1 0,1 c -0.7,0.3 -0.8,1.7 -0.1,1.7 q 0.5,0 0.5,0.4 -0.4,1.6 1.2,1.6 h 1 l -1,0.5 c -1.4,0.5 -1.5,1.5 -0.3,1.5 q 1.1,0 0.1,-0.5 -1,-0.5 0.7,-0.5 c 1.4,0 1.8,0.7 0.6,1.1 q -0.6,0.3 -0.4,1.4 0.4,1.4 -0.7,0.8 -1.4,-0.5 0,0.4 0.9,0.7 0.4,0.8 -0.6,0 -0.3,0.4 0,0.5 -0.6,0.7 -1,0.3 0.2,0.3 1,0 0.9,0.6 -0.2,0.5 0.7,0.5 1,0 1,-0.5 0.1,-0.5 0.8,-0.5 0.9,0 -0.5,1.2 c -1.1,1.1 -1.4,1.2 -2.3,0.7 q -1,-0.8 -1.5,0 -0.5,0.8 -1.1,0.2 c -1,-0.8 -1,0.4 0,1.3 q 0.6,0.6 0.6,0.1 0,-0.5 0.6,-0.5 0.3,0 0.2,0.5 -0.2,0.5 0.3,0.5 0.8,0 -0.1,0.5 -0.9,0.5 0.4,0.5 1.5,-0.1 0.4,0.7 c -0.7,0.8 -1.5,1.1 -1.1,0.4 q 0.1,-0.4 -0.7,-1 -1,-0.7 -0.7,0.3 l 0.2,1.2 q 0,0.3 0.4,0.3 c 1.1,-0.2 2.1,0.1 1.9,0.6 q -0.3,0.5 0.2,0.5 0.5,0 0.3,0.5 -0.2,0.5 0.4,0.5 0.8,0 0.8,0.7 0,0.7 -0.5,0.8 -0.5,0.1 -0.5,0.8 0.1,0.6 0.5,0.4 0.4,-0.2 0.5,0.7 0,1 -0.8,1.1 -1.2,-0.1 0.1,0.7 c 0.8,0.7 0.9,0.8 0.2,1.3 q -0.9,0.7 0.3,0.3 c 1.5,-0.3 2.3,0.3 1.4,1.1 q -0.7,0.5 -0.7,0.1 -0.1,-0.5 -0.8,-0.5 -0.9,0 -0.3,0.3 0.5,0.3 0.6,1 0.1,0.7 -0.5,0.4 -0.6,-0.3 -0.3,0.3 l 0.6,1.6 q 0.4,0.8 0.8,0.9 0.4,0.1 0.2,-0.5 -0.2,-0.6 0.2,-0.5 c 0.7,0 1.2,1 0.7,1.4 -0.6,0.5 -0.8,1.6 -0.2,1.6 q 0.5,0 0.5,0.7 0,0.7 -0.5,0.8 -0.5,0.1 0.3,1.5 0.7,1.3 0.4,1.5 -0.4,0 0.3,0.5 1,0.5 0,0.5 -0.7,0 -0.1,0.6 1.3,1.3 -0.2,1.4 -1.2,-0.2 0,0.6 0.9,0.7 0.9,2.2 0.1,1.4 0.5,2 c 0.6,0.7 0.8,5.2 0.3,6 q -0.2,0.6 0.4,1.2 1,0.7 0,1 -1.2,0.2 -0.2,1 c 0.7,0.7 0.7,0.8 0,1.4 q -0.6,0.6 -0.2,1 c 0.5,0.4 0.5,2.8 0,3.3 q -0.2,0.4 0.4,1.2 1,0.8 0.1,1.1 -0.7,0.5 0.6,0.5 c 1.1,0 1.2,0 0.3,1 q -0.8,0.9 -0.4,1 0.4,0.1 0.8,-0.6 0.1,-0.6 0.5,-0.4 0.2,0.4 -0.6,1.5 c -0.9,1.1 -0.9,1.2 -0.1,1.8 q 1,0.6 0,1.1 -0.6,0.5 0,0.8 0.6,0.3 0.8,-0.4 0.3,-0.8 0.8,-0.8 0.5,0 -0.1,1 -0.4,0.9 -0.1,1 0.3,0.1 -0.4,0.5 -1,0.6 0.4,0.5 1,0 1.3,0.6 0,0.7 1.3,0 1,-0.6 1.4,-0.4 0.2,0.2 -0.1,0.3 -0.3,0.1 0.5,0.7 0.8,0.7 0.6,1.1 -0.4,0.2 -1.1,-0.3 -1,-0.9 -0.5,0.2 0.3,0.7 0.7,0.8 c 0.5,0 1.4,2.1 1.2,2.9 q -0.3,0.5 -1.1,0.6 -0.8,0.1 -0.2,0.3 0.5,0.3 0.3,0.7 -0.1,0.5 0.3,0.5 0.6,0 1.3,0.7 1,1 -0.3,0.9 -0.2,0 -0.3,1 0,0.8 1,0.9 c 2.3,0 -0.4,1 -10,3.7 a 133,133 0 0 1 -24.7,5.2 c -6.7,0.7 -16.9,0.6 -23.7,-0.2 M 198,369.2 q -0.5,-0.3 -0.3,-0.8 0.1,-0.3 -0.7,-0.4 -0.9,0 -0.9,-1.2 -0.2,-1.4 0.9,-1.3 c 1.1,0 1.2,-0.9 0.1,-1.3 q -1.6,-0.7 -1.6,2.6 0,1.7 0.7,1.7 0.7,0 0.7,0.5 0,0.5 0.9,0.4 0.9,-0.1 0.2,-0.3"
       id="path26"
       style="fill:url(#linearGradient37)" />
    <path
       fill="url(#c)"
       d="M 106.5,264.2 Q 86.5,243.4 80.4,215.5 A 68,68 0 0 1 79.3,198 c 0,-11.5 0,-12.7 1.4,-18.8 A 105,105 0 0 1 142.9,104 q 0.9,0 1.9,-0.7 c 1.1,-0.8 6,-2.8 11.2,-4.5 l 5.3,-2 c 0.8,-0.5 1.8,-0.8 2.2,-0.8 0.4,0 1.9,-0.6 3,-1.2 2.6,-1.4 7.6,-3.3 12.8,-4.8 1.9,-0.6 5,-1.8 7,-2.7 a 155,155 0 0 1 17,-6.6 l 16.2,-6 5.3,-2 q 0.9,-0.7 2.1,-0.7 1.2,0 2,-0.7 1.3,-1.1 10.8,-4.2 c 2.3,-0.7 4.8,-1.5 5.6,-1.9 2,-1 7.5,-3 13.7,-5 l 6.9,-2.5 a 8,8 0 0 1 2.7,-0.7 q 1.1,0 1.7,-0.4 a 123,123 0 0 1 21,-7.1 196,196 0 0 1 30.4,-10.4 75,75 0 0 1 28.3,-3.8 c 11.5,0 13.3,0 17.8,1.1 a 87,87 0 0 1 21.4,7.6 86,86 0 0 1 47.9,71.5 89,89 0 0 1 -9.7,46.5 82,82 0 0 1 -30.4,33.6 55,55 0 0 0 -5.6,3.7 c -0.7,0.6 -2.1,1.3 -3,1.5 a 77,77 0 0 0 -11.3,3.8 q -0.7,0.6 0.2,1.2 1.4,0.8 -0.7,0.7 c -1.1,0 -3.4,-1.1 -8,-3.9 l -13,-7.5 c -3.7,-2 -8,-4.6 -9.5,-6 a 71,71 0 0 0 -34.6,-11 c -16.8,-1.5 -60,-3.1 -85.1,-3.1 -18.9,0 -23,0.4 -31.8,3.3 -2.1,0.7 -6.1,1.8 -8.9,2.5 -5.5,1.2 -16.8,4.8 -20,6.2 l -5.8,2.5 c -2.2,0.9 -6.3,3 -9.2,4.8 -22.5,13.4 -37,34 -39.7,56.5 -0.6,4.4 -0.5,6 0.6,13.3 q 0.6,4 0,4.4 -0.4,0.6 -5.2,-4.4"
       id="path27"
       style="fill:url(#c)" />
  </g>
  <g
     fill="#0244ab"
     id="g28"
     transform="matrix(1.1440683,0,0,1.1440683,-43.059035,-36.064544)">
    <path
       d="m 338.2,325.1 c 0.2,-0.3 2.2,-1.7 4.5,-3.2 a 50,50 0 0 0 21.5,-29 c 2.1,-7.6 2.4,-13.4 2.2,-42.9 -0.2,-29.7 -0.2,-29.4 -3.3,-38 q -4.2,-11.2 -13.6,-19.8 c -2.2,-2.1 -2.6,-2.7 -1.9,-3 1.5,-0.5 21.7,10.8 31.8,17.9 6.7,4.7 13.5,9.9 18.9,14.3 8.2,7 17.2,15.3 16.6,15.6 q -0.3,0.4 0.6,2.7 c 5.4,12.7 2,31.9 -8.3,47.3 a 88,88 0 0 1 -45,33.3 c -10.4,3.4 -25,6.4 -24,4.8 M 136,289.2 c -7.3,-5.1 -11,-7.9 -17.7,-13.8 -6,-5.1 -8.1,-7.3 -8.2,-8.4 l -0.6,-6.2 a 66,66 0 0 1 13.9,-45.3 c 3.3,-4.5 11.4,-12.7 16.6,-16.6 5,-3.8 13.5,-8.9 18.4,-10.9 l 5.8,-2.5 c 6.7,-3 23.4,-7.4 29,-7.8 l 3.5,-0.2 -2,0.7 c -3.3,1 -11.1,5 -14.7,7.4 a 76,76 0 0 0 -14.9,14.7 56,56 0 0 0 -8.7,22 c -0.5,3 -0.6,10.5 -0.5,29.7 0.1,23.2 0.2,26.2 1.1,30.5 l 1.9,7.5 1,2.8 h -7.4 c -4,0 -7.9,0.1 -8.8,0.3 -1.3,0.3 -2.3,-0.2 -7.7,-4"
       id="path28" />
  </g>
</svg>
