<?xml version="1.0" encoding="UTF-8" standalone="no"?>
<svg
   viewBox="0 0 512 512"
   version="1.1"
   id="svg28"
   sodipodi:docname="sveltastic-ui.svg"
   inkscape:version="1.4.3 (0d15f75, 2025-12-25)"
   xmlns:inkscape="http://www.inkscape.org/namespaces/inkscape"
   xmlns:sodipodi="http://sodipodi.sourceforge.net/DTD/sodipodi-0.dtd"
   xmlns="http://www.w3.org/2000/svg"
   xmlns:svg="http://www.w3.org/2000/svg">
  <sodipodi:namedview
     id="namedview28"
     pagecolor="#ffffff"
     bordercolor="#000000"
     borderopacity="0.25"
     inkscape:showpageshadow="2"
     inkscape:pageopacity="0.0"
     inkscape:pagecheckerboard="0"
     inkscape:deskcolor="#d1d1d1"
     inkscape:zoom="0.92123388"
     inkscape:cx="226.86964"
     inkscape:cy="264.31941"
     inkscape:window-width="1800"
     inkscape:window-height="1012"
     inkscape:window-x="0"
     inkscape:window-y="44"
     inkscape:window-maximized="1"
     inkscape:current-layer="svg28" />
  <defs
     id="defs12">
    <linearGradient
       id="a"
       x1="43.5%"
       x2="57%"
       y1="52.8%"
       y2="45%"
       gradientUnits="userSpaceOnUse">
      <stop
         offset="0%"
         style="stop-color:#fb9c10"
         id="stop1" />
      <stop
         offset="21%"
         style="stop-color:#f9d51d"
         id="stop2" />
      <stop
         offset="23%"
         style="stop-color:#fad922"
         id="stop3" />
      <stop
         offset="31%"
         style="stop-color:#fca21a"
         id="stop4" />
      <stop
         offset="100%"
         style="stop-color:#f9dd26"
         id="stop5" />
    </linearGradient>
    <linearGradient
       id="b"
       x1="14.3%"
       x2="88.3%"
       y1="69.5%"
       y2="69.5%"
       gradientUnits="userSpaceOnUse">
      <stop
         offset="0%"
         style="stop-color:#0364f6"
         id="stop6" />
      <stop
         offset="1%"
         style="stop-color:#0365fc"
         id="stop7" />
      <stop
         offset="99%"
         style="stop-color:#0991fa"
         id="stop8" />
      <stop
         offset="100%"
         style="stop-color:#0a8ff9"
         id="stop9" />
    </linearGradient>
    <radialGradient
       id="c"
       cx="83.6%"
       cy="41.4%"
       r="76.3%"
       gradientUnits="userSpaceOnUse">
      <stop
         offset="8%"
         style="stop-color:#0763f2"
         id="stop10" />
      <stop
         offset="89%"
         style="stop-color:#0466fb"
         id="stop11" />
      <stop
         offset="100%"
         style="stop-color:#0364f6"
         id="stop12" />
    </radialGradient>
  </defs>
  <g
     fill="url(#a)"
     id="g15">
    <path
       d="M238 285.9a7 7 0 0 1 1-3.1l1-1.5-1.4-1.8c-.8-1-1.9-2.8-2.5-4.1q-1.3-2.2-2.1-2.4c-.8 0-.7-.3.5-2.6l1.6-3.8c.5-2 1.7-1.2 2.7 1.5 1.2 3.6 4.5 6.9 8.6 8.4 1.7.6 3.1 1.3 3.1 1.6 0 .5-2.7 1.9-3.8 1.9-.4 0-2.5 1.7-4.6 3.8l-3.9 3.7q-.2-.1-.2-1.6"
       id="path13" />
    <path
       d="M278.2 265.2q-.6-.4-.7-1.4c0-1.5-1.1-3.8-1.8-3.8q-.6-.1-.7-1t-.4-1-.9-1.5q-.2-1.4-.7-1.5t-1-1.5q-.6-1.4-1-1.5t-.8-1.8-1-2-.7-2-.4-1.7-1.1-2a11 11 0 0 0-2.1-3.6q-1.2-1.5-1.4-2.2 0-.6-.5-.8t1-2.6c2-2.9 4.2-8 5.8-13.3 1.5-5.2 2.4-5.2 4 .2.6 2.2 2.2 6.2 3.6 8.8 1.9 3.8 3.1 5.5 6.6 9a26 26 0 0 0 9 6.6 71 71 0 0 0 9.2 3.6c3.5 1.2 4.2 1.5 3.7 2.1a2 2 0 0 1-1.3.7c-2 0-8.9 2.5-11.3 4.1-1.4 1-3.1 1.9-3.8 2-.8.2-3.2 2.2-5.5 4.4-4 3.9-4.5 4.2-5.8 3.7"
       id="path14" />
    <path
       d="M238.5 228.5c0-1.5-.4-2.6-1.7-4.5a11 11 0 0 1-1.8-3.2q0-.8-.4-.8-.5-.1-.9-1.1c-.5-1.7-2.4-4.4-3-4.4-.3 0 .2-1.3 1.1-2.8 1-1.6 2.1-4.1 2.6-5.5q1.5-5.7 3.6.8a19 19 0 0 0 13.1 12.4 9 9 0 0 1 2.9 1.2l-2.8 1.1c-4.1 1.3-6.8 3-9.6 6.1a19 19 0 0 1-2.8 2.7q-.2-.2-.3-2"
       id="path15" />
  </g>
  <g
     fill="url(#a)"
     id="g18">
    <path
       d="M236 284.9a9 9 0 0 1-1.5-2.7c0-1.2-3-5.7-3.8-5.7-1.2 0-.8-.7 1.7-3.1q2.4-2.4 3.2-2.1c.4.1 1.3 1.3 2 2.6 1.3 2.8 4.4 7.1 5 7.1q.2.2-1.4 2.3a10 10 0 0 0-1.7 3c0 1.5-2 .7-3.5-1.4"
       id="path16" />
    <path
       d="M273.7 272.8q-.9-1.7-1.3-1.8-.4 0-.4-1c0-.5-.8-1.8-1.7-2.8q-1.9-1.7-1.8-3.2 0-1.4-.5-1.5-.4 0-.5-.7 0-.8-.4-.8-.5-.2-1.2-1.7-.6-1.7-1-1.8-.4 0-.4-.7 0-.8-.4-.8-.6-.1-1.3-1.7c-.4-.9-1.1-2-1.5-2.3q-.8-.6-.8-1.5t-.5-1.3q-.4-.3-.5-1.2 0-1-.5-1t-.8-1.2-1.5-2.3l-1.1-.8 4.1-4.3c4-4 5-4.6 5.4-3q.3.8 1.4 2c.7.8 1.5 2.3 2 3.4a12 12 0 0 0 2 3.7q.7 1.3 0 1.4-.6.3.4.9c.6.4 1 1.3 1 1.9q.1 1.2.8 2t1 1.8q.4 1 .8 1c.4 0 1.2 2 1 2.7q0 .4.7.2.7-.4.6.9-.1 1.1.4 1.2c.6 0 1.8 2.3 1.8 3.4q0 .5.7.6t-.2.5.4.7q1.8.6.6 1.6c-.3.1-1.6 2.3-2.8 4.7a19 19 0 0 1-2.7 4.5q-.4-.2-1.3-1.7"
       id="path17" />
    <path
       d="M236.5 233.4a6 6 0 0 0-1-2.6l-1.6-2.6-.9-1.2-1.4-2.6c-.7-1.3-1.4-2.4-1.7-2.4q-.3 0-.4-1 0-.9-.4-1t-.7-1q-.4-.9-1.1-1c-1.2 0-.9-.5 2.3-3.4l2.8-2.6 1 1.9c.7 1 1.4 2.4 1.7 3.2q.5 1.3 1 1.4.3.1.4.8c0 .6 3.1 5.4 4 6.2q1 .8-1.3 5.7-2.6 5.2-2.7 2.2"
       id="path18" />
  </g>
  <g
     fill="url(#a)"
     id="g21">
    <path
       d="M236.9 291.7q-.4-.4-.4-1.2c0-1.6-2.9-6.8-4.5-8.3q-2.5-2-6.7-3.4-1.1-.4-.3-1 .6-.8 1-.8l2.8-1.1c1.3-.6 2.6-1 2.8-1q.4 0 .4-.6c0-.3.9.8 2 2.5s2 3.4 2 3.8c0 1 3 5 3.5 4.6.4-.2-1.7 6.1-2.1 6.6q-.3.1-.6-.2"
       id="path19" />
    <path
       d="M270.5 282c-3-10.6-5.4-15-11-20.6a27 27 0 0 0-9-6.5 66 66 0 0 0-8.9-3.5c-5-1.3-4.8-1.7.9-3.4 3.7-1.1 8.7-3.3 12.9-5.7l2.2-1.2 1.2 1.3q1.1 1 1 1.6-.2.5.4 1.2.8.7.8 1.3.1.6.8 1.8.8 1 .4 1.2-.3 0 .6 1.2l1.7 2.5q.7 1.2 1.1 1.3t.4.8.4.7 1 1.8q.7 1.5 1.2 1.4.3-.1.4.8t.5 1q.5.1.5 1.4c0 1.4 1.2 3.4 2 3.4q.5 0 .6.4.1.7.7 1.2.6.7.4 1.4-.3.6.6.7t.6.3c-.5.5.6 2.3 1.1 2q.4-.2.3.3l-2 6.7c-1 3.2-2 6.1-2.3 6.4s-.9-1.2-1.5-3.2"
       id="path20" />
    <path
       d="M234.8 236.2q-3.4-11.2-13-14.1c-1.6-.5-2.9-1.1-2.9-1.4s.9-.7 1.9-1.1c2.5-.8 5.2-2.1 6.2-2.8q1.8-1.3 2.8.6.4 1 .8 1.1t.4 1 .4 1q.6.2 1.7 2.4c.6 1.3 1.3 2.5 1.6 2.5q.3.2.3.9.1.6.8 1.3c1.6 1.3 2.6 4 2.1 5.9l-1 3.7q-.4 1.6-.9 1.8c-.2 0-.8-1.3-1.2-2.8"
       id="path21" />
  </g>
  <g
     fill="url(#b)"
     id="g23">
    <path
       d="M291.2 444.7c-1-.4-.9-4.6 0-5.5.6-.5 2.2-.7 6.3-.7h5.6l-.2 1.6c-.1 1.3-.4 1.7-2.1 2.3l-3 1c-1.3.6-5 1.6-5.6 1.6z"
       id="path22" />
    <path
       d="M312.2 438.2q-.6-.5-.7-1.8.1-1.4-1-1.4c-.8 0-1-.3-1-2.2 0-1.2-.2-2.4-.5-2.5q-.4-.5-.5-2 0-1.7-.5-2t-.5 1.1q0 1.6-.7 1.6-.8.1-.8 1c0 .9-.3 1-2.2 1s-2.2-.1-2.7-1.3l-.7-2.7q-.3-1.2-.3.7c-.1 2.5-1 3.3-3.8 3.3-1.2 0-2.3.3-2.3.5q0 .5-1.5.5-1.4.1-1.5.5t-1.7.5c-1.4 0-1.7-.2-2-1.5q-.3-1.4-1-1.5-.6 0-1.2-3.8c-.7-4.8-.7-6.7-.1-6.7q.5 0 .5-.7 0-.9-1.8-.8c-2.2 0-3-.7-3.3-3.3-.3-1-.6-3.4-.9-5.2s-.7-5-.8-7.2-.5-4.5-.7-5c-.5-1.1-.9-10.3-1.3-31-.2-7.1-.5-13.3-.8-13.8-.6-1.3-.5-3.9.2-4.2q.8 0 0-1-.7-.8-.4-2.7c.4-2.3.4-3.9.1-13.5q-.3-7.6.2-7.6t.5-1.2.4-1.3l8 1.5c15 2.9 20.7 3.6 33.5 3.9 12.4.3 18.3-.2 20.1-1.7.4-.3 2.2-.9 4-1.2 13.5-2.4 27.8-7.6 38-14a83 83 0 0 0 30.2-32.5c3.4-7.6 6-17.3 5.9-23.2 0-3.2-1.4-9.6-2.6-12.6-1.2-2.7-1.4-5.7-.3-5.7s11 10.6 16 16.8a103 103 0 0 1 24.4 73.4 100 100 0 0 1-55 81.8c-2.7.7-7.4 2.8-7.9 3.5a268.3 268.3 0 0 0-23 8.3l-8.5 3c-.8.3-3.9 1.5-7 2.5a42 42 0 0 0-6.3 2.6c-.5.4-2.3 1-4.1 1.4s-4 1-4.9 1.4-2.2.9-2.9 1l-2.8 1c-.8.4-2.5 1-3.7 1.3s-3.6 1.3-5.3 2c-1.6.8-4.2 1.7-5.7 1.9l-3.5.8a2 2 0 0 1-1.4 0"
       id="path23" />
  </g>
  <g
     fill="url(#b)"
     id="g25">
    <path
       d="M214.5 467c0-.8-.3-1.9-.7-2.3-.9-.9-1.1-4.2-.3-4.2q.5 0-.2-.8-.7-.7-.8-1.2 0-.5-1-.5t-1-.5q0-.4-.9-.5c-2 0-3.2-6.2-3.3-17.3a51 51 0 0 0-.8-10.6q0-1.6-.7-2-1-.1-.8-2.8c0-3.2-.5-7.3-1-7.3-.7 0-1.5-3.3-1.7-7.6-.2-5.3-.5-6.4-1.8-6.4-1.1 0-1.4-.8-1.8-5-.3-3.3-.3-3.5.7-3.5 1.2 0 1.7-2 1-5l-.7-4.2a6 6 0 0 0-1-2.7c-1-1-1-4.1 0-4.1q.8 0 .8-2 .1-1.8.5-2t.5-1.8c0-1.7 0-1.7-2-1.7q-1.8 0-2-.5 0-.5-.7-.5c-.7 0-.8-1.2-.8-7.8v-7.7h3.4l.2-2.8c.2-3.6.2-3.7-1.9-3.7H194l.1-20.3c.2-14.8.4-20.4.8-20.8.8-.8.8-1.9.1-1.9-1 0-3-2.7-3-4.1q0-1.7.9-1.2l5.9 1.7a903.7 903.7 0 0 0 79.9 19.8c2.5.4 3.1 1.3.8 1.3q-1.4 0-1.5.5.1.5.5.2c1-.6.5.6-.5 1.3q-.9.7-.5 1.2c.5.7.4 2.3-.2 2.3q-.4 0 0 .6c.7 1 .8 6.4.1 6.4q-.4 0 0 .6c.4.5.8 5.3.6 7.4v1.6q0 1-.7.5-.6-.3.1.5c.9 1.1 1 4.7.2 4.5q-.7-.2 0 1.2.7 1.5.5 4.3-.2 3 .5 2.9.6 0-.1.5c-.7.4-.7.6 0 1.6q.6 1.1 0 1.3t-.5.9.4.5 1.1.2q.9.6-.5.5t-.6.4q.9.5 0 .7-.6.3.5.3 1.5 0 .4.8-.6.9-.5 1.6.5.9-.4.4t0 .4q.6.8.4 1.3t.3 1.2q.9.6 0 1.4-.8.6-.3.8t.3 1.7q-.2 1.4-.6 1.2-.4 0-.4.5 0 .7.4.8.3.1.4 1.4c0 3.8.1 4.6.6 4.3q.4-.1.5.2 0 .5-.5.6t-.5.7.5.8.1.6c-.6.8-.5 6.9.1 7.8q.4.7 0 1-.7.1 0 1.3.5 1.3.5 3.1a6 6 0 0 0 .3 2.7q.5 1-.2 1.1t.2.8q.6.5.4.9-.2.3.4 1.1.8.7.2 1c-.7.2-.7 1.6 0 1.6q.6 0 0 .7-.8.7 0 1.9c.4.6.6 1.8.6 2.5-.2 1.8.9 3 1.8 2q.8-.7-.2-.6c-.7 0-.7 0 0-.8s.7-.9-.3-1.8q-.9-.8-.6-.9.5-.1.6-1.8 0-1.5-.5-1.7-1.3 0 1.2-2.7 1.7-1.8 2.2-1c.6.6-.4 1.7-1.7 1.7q-1.1 0-.1.5.7.5.1.5t-.6.9.3.2q.3-.5 1.1-.6.6 0 .4-.3c-.4-.5 1-1.7 2-1.7q1 0 .3-.5-1-.4.1-.7c1-.4 1 1 .1 2q-.8.7-1 0-.2-.4-.3.6t-1 1.1c-1.1 0-1.7 1.3-.7 1.7s.9 1.2-.2 1.4q-1 0 0 1 .8.8.4 1.1-.3.4-.4 1.3.2.8.5.7t.4.6q0 .8.3.3t.7-.6q.5 0 .2.5t.3.5.2.5q-.2.5.3.5t.2.5q-.4.4-.7.3t-.4.4q.1.7.5.8.4 0-.6 1c-1.1 1-1.2 1.3-.3 2.3q.5.6.9 0 .3-.5.7-.2.2.5-.8 1.6t-.6 1.3q.6 0 .3.5-.1.5.3.5.6 0 0 .7-.6.8-.3 1.1t.3-.3.7.1.4 1q0 .4.3.4.4 0 .3 1.2-.2.8.1.4c.1-.3 1-.6 1.8-.7q2.3.1.4-.4c-1.1-.3-.6-.7.7-.5q.4 0 1.1-.9.7-1.2.7 0-.1 1.2.7.2.6-.7.5-1.5-.2-.8.1-.8c.7 0 1.8 2 1.4 2.5q-.4 1 1-.1c1-1 .7-2.7-.4-2.8l-1.3-.4c-.5-.5 1.5-1.6 2.5-1.4q1 .3 1-.5 0-.6.6-1.3t1.4 1.2q.6 1.6 1 1.5.3-.1.4 1 0 1.1-.5 1-.3-.2.2 1c.5 1.1 2 1.9 1.8 1q-.2-1.7 1-1.8.8 0 .2-.3t-1.3.3q-.8.8-.7-.7 0-1 .4-.9c.7.4.5-.4-.2-1.4q-.6-.8-1-.5c-.7.6-.3-.6.5-1.5q.8-.8.3-1.7c-.6-1.1-.3-2.2.5-2.2q.5 0 .2.3-.2.4.7 1.3 1 .8 1 1.1-.1.5.5 1.4c.7 1 2 1.2 2 .3q0-.3-.5-.2-.3.2-.7-.4-.2-.6.7-1c1.2-.2 1.7 1.5.6 2.5q-1 .8.2.7 1 0 1.6 0 1-.2.1.7-.7.9 0 1.6t.2 1.1.1 1.5q.6 1.3.8.5.3-.4.3.7.1 1.3-.4 1.7t-.5.8.7-.2c.7-1 1.5-1.2 1.1-.2q0 .5.6 1.1 1 .6.2 1.6c-.5.9-.4 1.1.8 1.5l1.3.5-1.7.7c-1 .4-2.3 1-3 1.1l-6.8 2c-5.3 1.7-5.4 1.7-4 .6l1.3-1.5c0-.4-5.2 0-5.4.5q-.2.6-1.2.4-1.1-.3-.3-.7.6-.5-.5-.3-1 0-1 .6.1.3-.4.4-.5 0-.6.9t.4.6.5.3q.1.4 1.3.5c1.9 0 1 .8-1.6 1.5-1.3.3-2.8.9-3.4 1.3q-1 .6-2.1.7a120 120 0 0 0-17.2 5 835 835 0 0 0-28.3 8.5 63 63 0 0 0-8.9 3c-.7 0-9.8 2.5-17.4 4.8q-1 .5-.9-1.3"
       id="path24" />
    <path
       d="M416.5 253.8c0-2.9.2-3.8.7-3.8q1.3.2 1.3 3.8t-1.3 3.7c-.5 0-.7-.9-.7-3.7"
       id="path25" />
  </g>
  <g
     fill="#0368fc"
     id="g27">
    <path
       fill="url(#b)"
       d="M158.8 475.7a96 96 0 0 1-30.6-8.9 91 91 0 0 1-26.6-18.5 93 93 0 0 1-24.3-95.7 87 87 0 0 1 47.8-54c4.7-2 14.5-5.1 16.2-5.1q1.3.2 0-.7-1.2-.7 0-1c.6-.3 4.8-.6 9.5-.7 8.2-.2 8.6-.2 8.8.7.3 1 .9 1 6 1.3q5.6.4 10.7 1.6a354 354 0 0 1 25 8l-3-.7c-1.2-.2-2.8-.7-3.5-1l-1.3-.3c0 .5 2.6 2.8 3.2 2.8q.7 0 .5 1-.4 1.1.7 1 1 0 1.1-.4t1-.4q1-.2 1 .4.1.3 1.3.4 1.2 0 .9.8-.4.6-1.4.7-1.2.1-1.6.5c-.4.8-1.7.6-1.7-.3q.2-1.2-1.2.3-1.3 1.1-1.3 1.7 0 .3.9-.6.9-1.2 1.5-.3.8.8-.1.7-1 0-1.7.8-.8.8-.2 1.7 1.3 1.9-.2 1.3-.8-.4-.5.5l.3 1 1 .2q1.3-.1.4.7-.6.7-1 .1-.3-.4-.4.8 0 1.3.6 1.4.4.1-.3.8-.8.8-.5 1.2.4.2.6-.4.2-.5.7-.6t.2.5q-.2.4.3.6.5.3-.6.3-1.4 0-.5.6t.2.5q-.6.1-.7.8.1.6.5.5.5-.2.5.1 0 .6-.5.6t-.4.9q0 .8.3.3.8-1.6.9.5-.1 2.2-1 .7-.1-.5-.5-.3-.2.3.4 1 .8.8.2 1c-.6.2-1 3.4-.3 3.4q.3 0 .6-.6.1-.6.5-.4.3.4-.4 1.2c-1 1-1.4 3.2-.7 4.3q.3.8-.1 1.3c-.6.6-.1 2.3.6 1.9q.3-.2.4.2 0 .5-.4.6t-.7 1.2q-.1 1.2.2 1.3.3 0 .4-.5 0-.5.9-.5 1-.1-.3 1c-1.2 1-2.2 4.1-1 3.1q.8-.6 1.4-.1 1 .5 0 .5-.8 0-1.5.7-.6.8 0 .8t.5-.5.6-.5q.3 0 .2.5-.3.5.5.5.6 0 .5-.5-.2-.5.8-.5 1.1 0 .7.4c-.6.4-1 1.8-.4 1.4q.4-.1 1.1.2 1 .6-.2.5-1 0-.5.4c.7.5.7 2.6-.1 2.6q-1.4 0 .3 1.9c1 1 1 1 0 1.7q-.8.7-.6 1 .1.3-.7.4-.9 0-1.6.6-.6.6-.6 0t-.4-.6q-.3.2-.5 2.2 0 2.3.6 2.3t0 .4-.3 1.5.6.8 1.2.5c.9 1 2.6 1 3 .2q.2-.6.3.2t-.5.9q-.4 0-.5 1 .2 1.3-1 .5-1-.6-.9.1c.2.9 1.1 1.8 1.6 1.5q.3 0 .3.6.1.8.5.5c.5-.2.8.8.6 2q-.1.3.4.1c.2-.2 1 .1 1.6.7l1.2 1-1.5-.2q-2-.4-.5.5 1.4.8-.3.7-1.3.1-.4.3 1.1.2.3.9l-1.4 1q-.8.1.3.3h1.5q.7 0 .9.8t-.3.5q-.7-.1-1.4.2-.9.5.2.5.8 0 .6.5t.2.5.5.4q0 .5-1 .2-.8-.2-.7-.7t-.5-.4-.8.8q0 .8-.7.5t-.4.5 1.6.7.4.3q-1.1.2-.3 1 .8 1 0 1c-.7.3-.8 1.7-.1 1.7q.5 0 .5.4-.4 1.6 1.2 1.6h1l-1 .5c-1.4.5-1.5 1.5-.3 1.5q1.1 0 .1-.5t.7-.5c1.4 0 1.8.7.6 1.1q-.6.3-.4 1.4.4 1.4-.7.8-1.4-.5 0 .4.9.7.4.8-.6 0-.3.4 0 .5-.6.7-1 .3.2.3 1 0 .9.6-.2.5.7.5 1 0 1-.5.1-.5.8-.5.9 0-.5 1.2c-1.1 1.1-1.4 1.2-2.3.7q-1-.8-1.5 0t-1.1.2c-1-.8-1 .4 0 1.3q.6.6.6.1t.6-.5q.3 0 .2.5-.2.5.3.5.8 0-.1.5t.4.5q1.5-.1.4.7c-.7.8-1.5 1.1-1.1.4q.1-.4-.7-1-1-.7-.7.3l.2 1.2q0 .3.4.3c1.1-.2 2.1.1 1.9.6q-.3.5.2.5t.3.5q-.2.5.4.5.8 0 .8.7t-.5.8-.5.8q.1.6.5.4t.5.7q0 1-.8 1.1-1.2-.1.1.7c.8.7.9.8.2 1.3q-.9.7.3.3c1.5-.3 2.3.3 1.4 1.1q-.7.5-.7.1-.1-.5-.8-.5-.9 0-.3.3.5.3.6 1t-.5.4-.3.3l.6 1.6q.4.8.8.9t.2-.5.2-.5c.7 0 1.2 1 .7 1.4-.6.5-.8 1.6-.2 1.6q.5 0 .5.7t-.5.8.3 1.5q.7 1.3.4 1.5-.4 0 .3.5 1 .5 0 .5-.7 0-.1.6 1.3 1.3-.2 1.4-1.2-.2 0 .6.9.7.9 2.2.1 1.4.5 2c.6.7.8 5.2.3 6q-.2.6.4 1.2 1 .7 0 1-1.2.2-.2 1c.7.7.7.8 0 1.4q-.6.6-.2 1c.5.4.5 2.8 0 3.3q-.2.4.4 1.2 1 .8.1 1.1-.7.5.6.5c1.1 0 1.2 0 .3 1q-.8.9-.4 1t.8-.6q.1-.6.5-.4.2.4-.6 1.5c-.9 1.1-.9 1.2-.1 1.8q1 .6 0 1.1-.6.5 0 .8t.8-.4q.3-.8.8-.8t-.1 1q-.4.9-.1 1t-.4.5q-1 .6.4.5 1 0 1.3.6 0 .7 1.3 0 1-.6 1.4-.4.2.2-.1.3t.5.7q.8.7.6 1.1-.4.2-1.1-.3-1-.9-.5.2.3.7.7.8c.5 0 1.4 2.1 1.2 2.9q-.3.5-1.1.6t-.2.3q.5.3.3.7-.1.5.3.5.6 0 1.3.7 1 1-.3.9-.2 0-.3 1 0 .8 1 .9c2.3 0-.4 1-10 3.7a133 133 0 0 1-24.7 5.2c-6.7.7-16.9.6-23.7-.2M198 369.2q-.5-.3-.3-.8.1-.3-.7-.4-.9 0-.9-1.2-.2-1.4.9-1.3c1.1 0 1.2-.9.1-1.3q-1.6-.7-1.6 2.6 0 1.7.7 1.7t.7.5.9.4.2-.3"
       id="path26" />
    <path
       fill="url(#c)"
       d="M106.5 264.2q-20-20.8-26.1-48.7a68 68 0 0 1-1.1-17.5c0-11.5 0-12.7 1.4-18.8a105 105 0 0 1 62.2-75.2q.9 0 1.9-.7c1.1-.8 6-2.8 11.2-4.5l5.3-2c.8-.5 1.8-.8 2.2-.8s1.9-.6 3-1.2c2.6-1.4 7.6-3.3 12.8-4.8 1.9-.6 5-1.8 7-2.7a155 155 0 0 1 17-6.6l16.2-6 5.3-2q.9-.7 2.1-.7t2-.7q1.3-1.1 10.8-4.2c2.3-.7 4.8-1.5 5.6-1.9 2-1 7.5-3 13.7-5l6.9-2.5a8 8 0 0 1 2.7-.7q1.1 0 1.7-.4a123 123 0 0 1 21-7.1 196 196 0 0 1 30.4-10.4 75 75 0 0 1 28.3-3.8c11.5 0 13.3 0 17.8 1.1a87 87 0 0 1 21.4 7.6 86 86 0 0 1 47.9 71.5 89 89 0 0 1-9.7 46.5 82 82 0 0 1-30.4 33.6 55 55 0 0 0-5.6 3.7c-.7.6-2.1 1.3-3 1.5a77 77 0 0 0-11.3 3.8q-.7.6.2 1.2 1.4.8-.7.7c-1.1 0-3.4-1.1-8-3.9l-13-7.5c-3.7-2-8-4.6-9.5-6a71 71 0 0 0-34.6-11c-16.8-1.5-60-3.1-85.1-3.1-18.9 0-23 .4-31.8 3.3-2.1.7-6.1 1.8-8.9 2.5-5.5 1.2-16.8 4.8-20 6.2l-5.8 2.5c-2.2.9-6.3 3-9.2 4.8-22.5 13.4-37 34-39.7 56.5-.6 4.4-.5 6 .6 13.3q.6 4 0 4.4-.4.6-5.2-4.4"
       id="path27" />
  </g>
  <g
     fill="#0244ab"
     id="g28">
    <path
       d="M338.2 325.1c.2-.3 2.2-1.7 4.5-3.2a50 50 0 0 0 21.5-29c2.1-7.6 2.4-13.4 2.2-42.9-.2-29.7-.2-29.4-3.3-38q-4.2-11.2-13.6-19.8c-2.2-2.1-2.6-2.7-1.9-3 1.5-.5 21.7 10.8 31.8 17.9 6.7 4.7 13.5 9.9 18.9 14.3 8.2 7 17.2 15.3 16.6 15.6q-.3.4.6 2.7c5.4 12.7 2 31.9-8.3 47.3a88 88 0 0 1-45 33.3c-10.4 3.4-25 6.4-24 4.8M136 289.2c-7.3-5.1-11-7.9-17.7-13.8-6-5.1-8.1-7.3-8.2-8.4l-.6-6.2a66 66 0 0 1 13.9-45.3c3.3-4.5 11.4-12.7 16.6-16.6 5-3.8 13.5-8.9 18.4-10.9l5.8-2.5c6.7-3 23.4-7.4 29-7.8l3.5-.2-2 .7c-3.3 1-11.1 5-14.7 7.4a76 76 0 0 0-14.9 14.7 56 56 0 0 0-8.7 22c-.5 3-.6 10.5-.5 29.7.1 23.2.2 26.2 1.1 30.5l1.9 7.5 1 2.8h-7.4c-4 0-7.9.1-8.8.3-1.3.3-2.3-.2-7.7-4"
       id="path28" />
  </g>
</svg>
